<?xml version="1.0" encoding="UTF-8"?>
<svg width="663px" height="254px" viewBox="0 0 663 254" version="1.1" xmlns="http://www.w3.org/2000/svg" xmlns:xlink="http://www.w3.org/1999/xlink">
    <!-- Generator: Sketch 50.2 (55047) - http://www.bohemiancoding.com/sketch -->
    <title>bity_logo_blue</title>
    <desc>Created with Sketch.</desc>
    <defs></defs>
    <g id="Logo" stroke="none" stroke-width="1" fill="none" fill-rule="evenodd">
        <g id="Artboard-Copy-2" transform="translate(-166.000000, -148.000000)" fill="#00A5B3" fill-rule="nonzero">
            <g id="bity_logo_blue" transform="translate(166.000000, 148.000000)">
                <path d="M9.05932555,80.7850417 C4.3982025,80.7850417 0.618078475,77.0049174 0.618078475,72.3437944 C0.618078475,67.683078 4.3982025,63.9029542 9.05932555,63.9029542 L68.3127089,63.9395437 C96.7628378,63.9395437 113.469295,81.1009329 113.469295,105.935998 C113.469295,130.690973 94.6304708,139.293621 94.5056591,139.352164 C94.5020002,139.352164 94.5020002,139.352164 94.5020002,139.352164 C94.6564902,139.407049 122.501263,149.360265 122.501263,176.379329 C122.501263,203.475639 97.2145174,217.924917 77.7959495,217.924917 L9.05932555,217.987119 C4.29534476,217.987119 0.43472335,214.126092 0.43472335,209.362518 C0.43472335,204.598537 4.29534476,200.737915 9.05932555,200.737915 L74.6362248,200.767187 C89.9880489,200.767187 104.436921,193.089445 104.436921,176.379329 C104.436921,156.061874 86.3766441,148.384132 72.8266602,148.384132 L16.6488454,148.435764 C11.9881289,148.435764 8.2075983,144.655234 8.2075983,139.994518 C8.2075983,135.333395 11.9881289,131.55327 16.6488454,131.55327 L70.569481,131.674423 C83.2128534,131.674423 97.2145174,122.646114 97.2145174,106.163668 C97.2145174,89.6812209 85.4736915,80.6492533 71.4724341,80.6492533 L9.05932555,80.7850417 Z" id="Fill-5"></path>
                <path d="M6.55943495,217.208165 C2.78662887,216.297894 0.324141105,212.635264 0.324141105,208.755941 L0.324141105,73.3776572 C0.324141105,69.5024 2.78662887,65.8357041 6.55943495,64.9254332 C12.03163,63.6082037 16.9200159,67.7221071 16.9200159,72.9776098 L16.9200159,209.159648 C16.9200159,214.411491 12.03163,218.529054 6.55943495,217.208165" id="Fill-7"></path>
                <path d="M199.465287,218.040378 C194.885068,218.040378 191.167146,214.278549 191.167146,209.643039 L191.167146,71.85024 C191.167146,67.2151364 194.885068,63.456966 199.465287,63.456966 C204.045506,63.456966 207.763428,67.2151364 207.763428,71.85024 L207.763428,209.643039 C207.763428,214.278549 204.045506,218.040378 199.465287,218.040378" id="Fill-8"></path>
                <path d="M396.901759,79.9471371 L281.576672,79.9471371 C277.716051,79.9471371 274.071715,77.4919672 273.165103,73.7411151 C271.851125,68.2949395 275.947141,63.4317598 281.176624,63.4317598 L396.501712,63.4317598 C400.362333,63.4317598 404.006669,65.8836774 404.913281,69.6381884 C406.223599,75.084364 402.127584,79.9471371 396.901759,79.9471371" id="Fill-9"></path>
                <path d="M338.646462,215.277448 L338.620849,215.277448 C334.062584,215.262812 330.374341,211.555868 330.388977,206.994349 L330.773982,73.9541485 C330.789024,69.4032011 334.484585,65.7218696 339.031874,65.7218696 L339.057487,65.7218696 C343.615752,65.7369118 347.303995,69.44345 347.289359,74.0053741 L346.903948,207.045575 C346.889312,211.596522 343.193751,215.277448 338.646462,215.277448" id="Fill-10"></path>
                <path d="M443.741472,45.2934253 C442.049808,42.1479296 442.603939,38.1437952 445.334345,35.5894266 C453.42677,28.0145427 462.521346,21.4893769 472.364386,16.1859011 C522.343497,-10.7303059 583.138526,-2.14595231 623.652282,37.5494156 C627.190103,41.0213729 626.856326,46.9448412 622.591587,49.9468239 C619.332667,52.2405926 614.86262,51.4848117 612.00334,48.7064326 C576.56173,14.2848621 523.587547,6.9116282 480.009197,30.3782381 C471.516724,34.9511393 463.666604,40.5623753 456.667805,47.0623348 C453.988625,49.5504353 449.969855,50.3615073 446.831677,48.4860812 C445.437203,47.6530554 444.413097,46.5374756 443.741472,45.2934253" id="Fill-11"></path>
                <path d="M420.014262,190.743638 C404.706345,162.322781 400.621714,129.464404 408.501105,98.1919883 C409.418694,94.5586296 412.684936,91.7619562 416.432129,91.8428601 C421.875052,91.956288 425.445802,96.97721 424.190775,101.898527 C417.221247,129.324957 420.777767,158.164563 434.206193,183.099233 C448.449756,209.541807 472.096062,228.864835 500.829151,237.552046 C504.458851,238.649331 507.259183,241.897278 507.079487,245.688379 C506.815228,251.17521 501.618269,254.606919 496.711588,253.149835 C463.621884,243.299071 436.382874,221.139527 420.014262,190.743638" id="Fill-12"></path>
                <path d="M564.064716,248.263889 C563.536196,247.28369 563.198353,246.164452 563.099562,244.920402 C562.809284,241.143937 565.499439,237.826063 569.092546,236.62592 C575.203435,234.585434 581.200085,231.983499 586.92556,228.900612 C631.340599,204.982729 654.553922,154.075052 643.507084,104.95824 C642.6334,101.075665 644.30718,96.8767913 647.955174,95.283919 C652.744768,93.1958664 657.996608,95.9961992 659.104874,100.844336 C672.045432,157.165257 645.507321,215.662453 594.570372,243.092542 C587.868762,246.703947 580.840695,249.72829 573.680087,252.08792 C569.914595,253.328311 565.881192,251.640306 564.064716,248.263889" id="Fill-13"></path>
                <path d="M534.246535,219.53893 L534.239219,219.53893 C529.97855,219.531612 526.532205,216.07795 526.539524,211.820533 L526.631404,174.499838 C526.638722,170.242421 530.08466,166.803394 534.33476,166.803394 L534.345736,166.803394 C538.603155,166.810713 542.04909,170.264375 542.041775,174.518132 L541.953955,211.842894 C541.946639,216.099903 538.496638,219.53893 534.246535,219.53893" id="Fill-14"></path>
                <path d="M578.859155,72.0551424 C578.859155,72.0551424 578.994946,78.0444721 578.994946,101.764364 C578.994946,136.109096 558.952727,140.755177 534.429079,140.942191 C509.909498,140.755177 489.86362,136.109096 489.86362,101.764364 C489.86362,80.7972382 489.999409,72.0551424 489.999409,72.0551424 C489.999409,60.7033867 473.120574,61.844986 473.120574,72.0551424 L473.120574,109.288023 C473.120574,130.159609 484.094236,154.653983 531.84178,156.048458 L531.84178,156.125296 C532.726031,156.125296 533.566782,156.107001 534.429079,156.092366 C535.291783,156.107001 536.135788,156.125296 537.020038,156.125296 L537.020038,156.048458 C584.76433,154.653983 595.741246,130.159609 595.741246,109.288023 L595.741246,72.0551424 C595.741246,61.844986 578.859155,60.7033867 578.859155,72.0551424" id="Fill-15"></path>
            </g>
        </g>
    </g>
</svg>