<?xml version="1.0" encoding="UTF-8"?>
<svg width="930px" height="289px" viewBox="0 0 930 289" version="1.1" xmlns="http://www.w3.org/2000/svg" xmlns:xlink="http://www.w3.org/1999/xlink">
    <!-- Generator: Sketch 54.1 (76490) - https://sketchapp.com -->
    <title>ThreeBoxLogoBlue</title>
    <desc>Created with Sketch.</desc>
    <g id="Page-1" stroke="none" stroke-width="1" fill="none" fill-rule="evenodd">
        <g id="ThreeBoxLogoBlue" fill="#181F21" fill-rule="nonzero">
            <path d="M42,0 L248,0 C271.195959,0 290,18.8040405 290,42 L290,247 C290,270.195959 271.195959,289 248,289 L42,289 C18.8040405,289 2.84068575e-15,270.195959 0,247 L0,42 C-2.84068575e-15,18.8040405 18.8040405,0 42,0 Z M146.4375,47.823 C137.893457,47.823 129.905787,49.0022382 122.47425,51.36075 C115.042713,53.7192618 108.456779,57.2347266 102.71625,61.90725 C96.9757213,66.5797734 92.1920191,72.4092151 88.365,79.39575 C84.5379809,86.382285 81.9570067,94.503454 80.622,103.7595 L97.977,106.83 C99.579008,107.097001 101.091993,107.2305 102.516,107.2305 C105.542015,107.2305 107.989491,106.496257 109.8585,105.02775 C111.727509,103.559243 113.195995,101.134017 114.264,97.752 C116.31101,91.254968 119.915474,85.937271 125.0775,81.79875 C130.239526,77.6602293 136.736461,75.591 144.5685,75.591 C153.201543,75.591 160.009975,77.9272266 164.994,82.59975 C169.978025,87.272273 172.47,94.191954 172.47,103.359 C172.47,107.631021 171.847006,111.546982 170.601,115.107 C169.354994,118.667018 167.152266,121.715237 163.99275,124.25175 C160.833234,126.788263 156.583527,128.768493 151.2435,130.1925 C145.903473,131.616507 139.18404,132.373 131.085,132.462 L131.085,155.958 C140.875049,155.958 148.684721,156.714492 154.51425,158.2275 C160.343779,159.740508 164.815984,161.831987 167.931,164.502 C171.046016,167.172013 173.092995,170.398231 174.072,174.18075 C175.051005,177.963269 175.5405,182.168477 175.5405,186.7965 C175.5405,190.445518 174.850757,194.072232 173.47125,197.67675 C172.091743,201.281268 170.000264,204.551985 167.19675,207.489 C164.393236,210.426015 160.900021,212.806741 156.717,214.63125 C152.533979,216.455759 147.639028,217.368 142.032,217.368 C137.047975,217.368 132.753768,216.633757 129.14925,215.16525 C125.544732,213.696743 122.407513,211.783262 119.7375,209.42475 C117.067487,207.066238 114.77576,204.374015 112.86225,201.348 C110.94874,198.321985 109.191008,195.251516 107.589,192.1365 C106.609995,190.267491 105.208259,188.843505 103.38375,187.8645 C101.559241,186.885495 99.4900116,186.396 97.176,186.396 C94.5949871,186.396 92.0585125,186.929995 89.5665,187.998 L75.015,194.0055 C77.6850133,202.282541 80.8889813,209.580468 84.627,215.8995 C88.3650187,222.218532 92.9039733,227.558478 98.244,231.9195 C103.584027,236.280522 109.858464,239.573489 117.0675,241.7985 C124.276536,244.023511 132.731451,245.136 142.4325,245.136 C151.332544,245.136 159.76521,243.845513 167.73075,241.2645 C175.69629,238.683487 182.70497,234.878775 188.757,229.85025 C194.80903,224.821725 199.614982,218.614037 203.175,211.227 C206.735018,203.839963 208.515,195.340548 208.515,185.7285 C208.515,174.425443 205.667028,165.036037 199.971,157.56 C194.274972,150.083963 185.642058,144.521518 174.072,140.8725 C178.878024,139.270492 183.172231,137.268012 186.95475,134.865 C190.737269,132.461988 193.941237,129.525017 196.56675,126.054 C199.192263,122.582983 201.194743,118.511273 202.57425,113.83875 C203.953757,109.166227 204.6435,103.759531 204.6435,97.6185 C204.6435,90.587465 203.286264,84.04603 200.57175,77.994 C197.857236,71.9419697 193.963525,66.6687725 188.8905,62.17425 C183.817475,57.6797275 177.698786,54.1642627 170.53425,51.62775 C163.369714,49.0912373 155.337544,47.823 146.4375,47.823 Z" id="Combined-Shape"></path>
            <g id="BOX" transform="translate(385.000000, 49.000000)">
                <g id="Group">
                    <g id="path-1-link">
                        <path d="M0.491,196 L0.491,2.959 L67.1075,2.959 C79.7455632,2.959 90.536705,4.160488 99.48125,6.5635 C108.425795,8.966512 115.768221,12.3929777 121.50875,16.843 C127.249279,21.2930222 131.454487,26.6774684 134.1245,32.9965 C136.794513,39.315532 138.1295,46.43546 138.1295,54.3565 C138.1295,58.895523 137.462007,63.234229 136.127,67.37275 C134.791993,71.511271 132.722764,75.382732 129.91925,78.98725 C127.115736,82.591768 123.555772,85.862485 119.23925,88.7995 C114.922728,91.736515 109.78303,94.22849 103.82,96.2755 C130.342133,102.23853 143.603,116.567387 143.603,139.2625 C143.603,147.450541 142.045516,155.015465 138.9305,161.9575 C135.815484,168.899535 131.27653,174.884725 125.3135,179.91325 C119.35047,184.941775 112.008044,188.879986 103.286,191.728 C94.563956,194.576014 84.596056,196 73.382,196 L0.491,196 Z M36.4025,111.361 L36.4025,167.965 L72.848,167.965 C79.5230334,167.965 85.107728,167.164008 89.60225,165.562 C94.096772,163.959992 97.701236,161.824013 100.41575,159.154 C103.130264,156.483987 105.088244,153.369018 106.28975,149.809 C107.491256,146.248982 108.092,142.46652 108.092,138.4615 C108.092,134.278479 107.424507,130.518267 106.0895,127.18075 C104.754493,123.843233 102.663014,120.995262 99.815,118.63675 C96.966986,116.278238 93.318022,114.476006 88.868,113.23 C84.417978,111.983994 79.0335316,111.361 72.7145,111.361 L36.4025,111.361 Z M36.4025,86.53 L65.105,86.53 C77.298061,86.53 86.553968,84.305022 92.873,79.855 C99.192032,75.404978 102.3515,68.329549 102.3515,58.6285 C102.3515,48.57145 99.503528,41.407021 93.8075,37.135 C88.111472,32.862979 79.2115605,30.727 67.1075,30.727 L36.4025,30.727 L36.4025,86.53 Z M359.606,99.4795 C359.606,113.630571 357.247524,126.73569 352.5305,138.79525 C347.813476,150.85481 341.183043,161.289956 332.639,170.101 C324.094957,178.912044 313.81556,185.787225 301.8005,190.72675 C289.78544,195.666275 276.480073,198.136 261.884,198.136 C247.287927,198.136 233.96031,195.666275 221.90075,190.72675 C209.84119,185.787225 199.517293,178.912044 190.92875,170.101 C182.340207,161.289956 175.687524,150.85481 170.9705,138.79525 C166.253476,126.73569 163.895,113.630571 163.895,99.4795 C163.895,85.328429 166.253476,72.22331 170.9705,60.16375 C175.687524,48.10419 182.340207,37.669044 190.92875,28.858 C199.517293,20.0469559 209.84119,13.1717747 221.90075,8.23225 C233.96031,3.2927253 247.287927,0.823 261.884,0.823 C276.480073,0.823 289.78544,3.3149751 301.8005,8.299 C313.81556,13.2830249 324.094957,20.1582062 332.639,28.92475 C341.183043,37.691294 347.813476,48.10419 352.5305,60.16375 C357.247524,72.22331 359.606,85.328429 359.606,99.4795 Z M322.76,99.4795 C322.76,88.888447 321.358264,79.387792 318.55475,70.97725 C315.751236,62.566708 311.724026,55.424529 306.473,49.5505 C301.221974,43.676471 294.836288,39.182016 287.31575,36.067 C279.795212,32.951984 271.318047,31.3945 261.884,31.3945 C252.449953,31.3945 243.950538,32.951984 236.3855,36.067 C228.820462,39.182016 222.390276,43.676471 217.09475,49.5505 C211.799224,55.424529 207.727514,62.566708 204.8795,70.97725 C202.031486,79.387792 200.6075,88.888447 200.6075,99.4795 C200.6075,110.070553 202.031486,119.571208 204.8795,127.98175 C207.727514,136.392292 211.799224,143.512221 217.09475,149.34175 C222.390276,155.171279 228.820462,159.643484 236.3855,162.7585 C243.950538,165.873516 252.449953,167.431 261.884,167.431 C271.318047,167.431 279.795212,165.873516 287.31575,162.7585 C294.836288,159.643484 301.221974,155.171279 306.473,149.34175 C311.724026,143.512221 315.751236,136.392292 318.55475,127.98175 C321.358264,119.571208 322.76,110.070553 322.76,99.4795 Z M430.2275,96.676 L368.684,2.959 L404.462,2.959 C406.954012,2.959 408.756244,3.2927467 409.86875,3.96025 C410.981256,4.6277533 411.982496,5.7179924 412.8725,7.231 L456.794,78.1195 C457.239002,76.962494 457.728497,75.827756 458.2625,74.71525 C458.796503,73.602744 459.419496,72.468006 460.1315,71.311 L500.315,7.8985 C502.27301,4.6054835 504.809484,2.959 507.9245,2.959 L542.3675,2.959 L480.1565,95.2075 L544.103,196 L508.1915,196 C505.788488,196 503.852757,195.377006 502.38425,194.131 C500.915743,192.884994 499.692005,191.461008 498.713,189.859 L453.9905,115.9 C453.634498,116.968005 453.234002,117.969245 452.789,118.90375 C452.343998,119.838255 451.899002,120.705996 451.454,121.507 L408.6005,189.859 C407.621495,191.372008 406.420007,192.773744 404.996,194.06425 C403.571993,195.354756 401.792011,196 399.656,196 L366.014,196 L430.2275,96.676 Z" id="path-1"></path>
                    </g>
                    <g id="path-1-link">
                        <path d="M0.491,196 L0.491,2.959 L67.1075,2.959 C79.7455632,2.959 90.536705,4.160488 99.48125,6.5635 C108.425795,8.966512 115.768221,12.3929777 121.50875,16.843 C127.249279,21.2930222 131.454487,26.6774684 134.1245,32.9965 C136.794513,39.315532 138.1295,46.43546 138.1295,54.3565 C138.1295,58.895523 137.462007,63.234229 136.127,67.37275 C134.791993,71.511271 132.722764,75.382732 129.91925,78.98725 C127.115736,82.591768 123.555772,85.862485 119.23925,88.7995 C114.922728,91.736515 109.78303,94.22849 103.82,96.2755 C130.342133,102.23853 143.603,116.567387 143.603,139.2625 C143.603,147.450541 142.045516,155.015465 138.9305,161.9575 C135.815484,168.899535 131.27653,174.884725 125.3135,179.91325 C119.35047,184.941775 112.008044,188.879986 103.286,191.728 C94.563956,194.576014 84.596056,196 73.382,196 L0.491,196 Z M36.4025,111.361 L36.4025,167.965 L72.848,167.965 C79.5230334,167.965 85.107728,167.164008 89.60225,165.562 C94.096772,163.959992 97.701236,161.824013 100.41575,159.154 C103.130264,156.483987 105.088244,153.369018 106.28975,149.809 C107.491256,146.248982 108.092,142.46652 108.092,138.4615 C108.092,134.278479 107.424507,130.518267 106.0895,127.18075 C104.754493,123.843233 102.663014,120.995262 99.815,118.63675 C96.966986,116.278238 93.318022,114.476006 88.868,113.23 C84.417978,111.983994 79.0335316,111.361 72.7145,111.361 L36.4025,111.361 Z M36.4025,86.53 L65.105,86.53 C77.298061,86.53 86.553968,84.305022 92.873,79.855 C99.192032,75.404978 102.3515,68.329549 102.3515,58.6285 C102.3515,48.57145 99.503528,41.407021 93.8075,37.135 C88.111472,32.862979 79.2115605,30.727 67.1075,30.727 L36.4025,30.727 L36.4025,86.53 Z M359.606,99.4795 C359.606,113.630571 357.247524,126.73569 352.5305,138.79525 C347.813476,150.85481 341.183043,161.289956 332.639,170.101 C324.094957,178.912044 313.81556,185.787225 301.8005,190.72675 C289.78544,195.666275 276.480073,198.136 261.884,198.136 C247.287927,198.136 233.96031,195.666275 221.90075,190.72675 C209.84119,185.787225 199.517293,178.912044 190.92875,170.101 C182.340207,161.289956 175.687524,150.85481 170.9705,138.79525 C166.253476,126.73569 163.895,113.630571 163.895,99.4795 C163.895,85.328429 166.253476,72.22331 170.9705,60.16375 C175.687524,48.10419 182.340207,37.669044 190.92875,28.858 C199.517293,20.0469559 209.84119,13.1717747 221.90075,8.23225 C233.96031,3.2927253 247.287927,0.823 261.884,0.823 C276.480073,0.823 289.78544,3.3149751 301.8005,8.299 C313.81556,13.2830249 324.094957,20.1582062 332.639,28.92475 C341.183043,37.691294 347.813476,48.10419 352.5305,60.16375 C357.247524,72.22331 359.606,85.328429 359.606,99.4795 Z M322.76,99.4795 C322.76,88.888447 321.358264,79.387792 318.55475,70.97725 C315.751236,62.566708 311.724026,55.424529 306.473,49.5505 C301.221974,43.676471 294.836288,39.182016 287.31575,36.067 C279.795212,32.951984 271.318047,31.3945 261.884,31.3945 C252.449953,31.3945 243.950538,32.951984 236.3855,36.067 C228.820462,39.182016 222.390276,43.676471 217.09475,49.5505 C211.799224,55.424529 207.727514,62.566708 204.8795,70.97725 C202.031486,79.387792 200.6075,88.888447 200.6075,99.4795 C200.6075,110.070553 202.031486,119.571208 204.8795,127.98175 C207.727514,136.392292 211.799224,143.512221 217.09475,149.34175 C222.390276,155.171279 228.820462,159.643484 236.3855,162.7585 C243.950538,165.873516 252.449953,167.431 261.884,167.431 C271.318047,167.431 279.795212,165.873516 287.31575,162.7585 C294.836288,159.643484 301.221974,155.171279 306.473,149.34175 C311.724026,143.512221 315.751236,136.392292 318.55475,127.98175 C321.358264,119.571208 322.76,110.070553 322.76,99.4795 Z M430.2275,96.676 L368.684,2.959 L404.462,2.959 C406.954012,2.959 408.756244,3.2927467 409.86875,3.96025 C410.981256,4.6277533 411.982496,5.7179924 412.8725,7.231 L456.794,78.1195 C457.239002,76.962494 457.728497,75.827756 458.2625,74.71525 C458.796503,73.602744 459.419496,72.468006 460.1315,71.311 L500.315,7.8985 C502.27301,4.6054835 504.809484,2.959 507.9245,2.959 L542.3675,2.959 L480.1565,95.2075 L544.103,196 L508.1915,196 C505.788488,196 503.852757,195.377006 502.38425,194.131 C500.915743,192.884994 499.692005,191.461008 498.713,189.859 L453.9905,115.9 C453.634498,116.968005 453.234002,117.969245 452.789,118.90375 C452.343998,119.838255 451.899002,120.705996 451.454,121.507 L408.6005,189.859 C407.621495,191.372008 406.420007,192.773744 404.996,194.06425 C403.571993,195.354756 401.792011,196 399.656,196 L366.014,196 L430.2275,96.676 Z" id="path-1"></path>
                    </g>
                </g>
            </g>
        </g>
    </g>
</svg>