<svg width="1200" height="1200" viewBox="0 0 1200 1200" fill="none" xmlns="http://www.w3.org/2000/svg">
<path d="M335.331 61.6797C632.637 -84.4932 992.147 38.0245 1138.32 335.331C1284.49 632.637 1161.98 992.147 864.669 1138.32C567.363 1284.49 207.853 1161.98 61.6797 864.669C-84.4932 567.363 38.0245 207.853 335.331 61.6797Z" fill="url(#paint0_linear)"/>
<path d="M600.008 1099.89C876.088 1099.89 1099.9 876.082 1099.9 600.001C1099.9 341.483 867.12 82.1831 599.368 101.85C597.368 108.476 597.868 109.476 595.868 115.474C598.55 132.716 616.721 150.624 612.865 162.964C608.305 202.955 496.324 429.103 477.895 456.898C419.029 518.862 213.485 598.042 124.474 597.366C112.953 597.279 107.978 598.366 100.12 600.001C100.12 876.082 323.927 1099.89 600.008 1099.89Z" fill="url(#paint1_linear)"/>
<path d="M612.865 162.964C608.305 202.955 496.324 429.103 477.895 456.898C419.029 518.862 213.485 598.042 124.474 597.366C112.953 597.279 107.978 598.366 100.12 600.001C100.12 876.082 323.927 1099.89 600.008 1099.89C876.088 1099.89 1099.9 876.082 1099.9 600.001C1099.9 341.483 867.12 82.1831 599.368 101.85C597.368 108.476 597.868 109.476 595.868 115.474M612.865 162.964C616.721 150.624 598.55 132.716 595.868 115.474M612.865 162.964C609.669 148.467 600.832 117.074 595.868 115.474" stroke="#6F7A91" stroke-width="5"/>
<path d="M740.336 168.963C718.841 135.47 685.348 107.476 598.868 101.978C522.385 380.415 398.403 506.151 99.9795 598.366C162.782 626.799 240.507 633.358 313.932 633.358C659.214 633.358 809.769 277.148 740.336 168.963Z" fill="url(#paint2_linear)"/>
<path d="M598.868 101.978L599.026 99.4826L596.996 99.3535L596.457 101.315L598.868 101.978ZM740.336 168.963L742.44 167.612L742.44 167.612L740.336 168.963ZM99.9795 598.366L99.2414 595.978C98.2489 596.284 97.5495 597.173 97.4844 598.21C97.4193 599.246 98.0021 600.215 98.9484 600.644L99.9795 598.366ZM598.709 104.473C641.715 107.207 671.323 115.522 692.779 127.17C714.192 138.794 727.652 153.828 738.232 170.313L742.44 167.612C731.524 150.604 717.491 134.895 695.164 122.775C672.879 110.678 642.501 102.247 599.026 99.4826L598.709 104.473ZM738.232 170.313C755.078 196.562 758.799 238.33 749.106 286.674C739.435 334.913 716.485 389.263 680.607 440.292C608.868 542.326 485.618 630.858 313.932 630.858V635.858C487.527 635.858 612.196 546.286 684.697 443.168C720.938 391.622 744.189 336.635 754.009 287.657C763.807 238.784 760.31 195.456 742.44 167.612L738.232 170.313ZM313.932 630.858C240.581 630.858 163.305 624.292 101.011 596.089L98.9484 600.644C162.259 629.307 240.434 635.858 313.932 635.858V630.858ZM596.457 101.315C558.28 240.299 508.325 340.889 430.885 418.236C353.43 495.598 248.261 549.929 99.2414 595.978L100.718 600.755C250.122 554.588 356.155 499.943 434.418 421.774C512.695 343.59 562.972 242.093 601.278 102.64L596.457 101.315Z" fill="#6F7A91"/>
<defs>
<linearGradient id="paint0_linear" x1="1137.74" y1="140.468" x2="-100.977" y2="1129.25" gradientUnits="userSpaceOnUse">
<stop offset="0.0578673" stop-color="#11224D"/>
<stop offset="0.122554" stop-color="#12234E"/>
<stop offset="0.256578" stop-color="#162651"/>
<stop offset="0.410759" stop-color="#1C2D57"/>
<stop offset="0.47998" stop-color="#3D4B6C"/>
<stop offset="0.774734" stop-color="#E1E0D6"/>
<stop offset="0.820759" stop-color="#FFFEF2"/>
</linearGradient>
<linearGradient id="paint1_linear" x1="471.894" y1="792.822" x2="1241.72" y2="193.457" gradientUnits="userSpaceOnUse">
<stop offset="0.137132" stop-color="#11224D"/>
<stop offset="0.207691" stop-color="#374362"/>
<stop offset="0.423032" stop-color="#8A92A1"/>
<stop offset="0.757172" stop-color="#EFEFED"/>
<stop offset="0.967755" stop-color="#FFFEF2"/>
</linearGradient>
<linearGradient id="paint2_linear" x1="690.847" y1="289.935" x2="241.117" y2="586.625" gradientUnits="userSpaceOnUse">
<stop stop-color="#11224D"/>
<stop offset="1" stop-color="#FFFEF2"/>
</linearGradient>
</defs>
</svg>
