<svg width="1006" height="1005" viewBox="0 0 1006 1005" fill="none" xmlns="http://www.w3.org/2000/svg">
<path d="M503.008 1001.89C779.088 1001.89 1002.9 778.082 1002.9 502.001C1002.9 243.483 770.12 -15.8169 502.368 3.85035C500.368 10.4758 500.868 11.4756 498.868 17.4742C501.55 34.7161 519.721 52.6243 515.865 64.9636C511.305 104.955 399.324 331.103 380.895 358.898C322.029 420.862 116.485 500.042 27.474 499.366C15.9535 499.279 10.9777 500.366 3.12012 502.001C3.12012 778.082 226.927 1001.89 503.008 1001.89Z" fill="url(#paint0_linear)"/>
<path d="M515.865 64.9636C511.305 104.955 399.324 331.103 380.895 358.898C322.029 420.862 116.485 500.042 27.474 499.366C15.9535 499.279 10.9777 500.366 3.12012 502.001C3.12012 778.082 226.927 1001.89 503.008 1001.89C779.088 1001.89 1002.9 778.082 1002.9 502.001C1002.9 243.483 770.12 -15.8169 502.368 3.85035C500.368 10.4758 500.868 11.4756 498.868 17.4742M515.865 64.9636C519.721 52.6243 501.55 34.7161 498.868 17.4742M515.865 64.9636C512.669 50.4668 503.832 19.0739 498.868 17.4742" stroke="#6F7A91" stroke-width="5"/>
<path d="M643.336 70.9625C621.841 37.47 588.348 9.47631 501.868 3.97754C425.385 282.415 301.403 408.151 2.97949 500.366C65.7823 528.799 143.507 535.358 216.932 535.358C562.214 535.358 712.769 179.148 643.336 70.9625Z" fill="url(#paint1_linear)"/>
<path d="M501.868 3.97754L502.026 1.48258L499.996 1.35347L499.457 3.31535L501.868 3.97754ZM643.336 70.9625L645.44 69.6122L645.44 69.6122L643.336 70.9625ZM2.97949 500.366L2.2414 497.978C1.24893 498.284 0.54951 499.173 0.484407 500.21C0.419304 501.246 1.00208 502.215 1.9484 502.644L2.97949 500.366ZM501.709 6.4725C544.715 9.20697 574.323 17.5224 595.779 29.1695C617.192 40.794 630.652 55.8281 641.232 72.3128L645.44 69.6122C634.524 52.6045 620.491 36.8954 598.164 24.7752C575.879 12.6776 545.501 4.24688 502.026 1.48258L501.709 6.4725ZM641.232 72.3128C658.078 98.5618 661.799 140.33 652.106 188.674C642.435 236.913 619.485 291.263 583.607 342.292C511.868 444.326 388.618 532.858 216.932 532.858V537.858C390.527 537.858 515.196 448.286 587.697 345.168C623.938 293.622 647.189 238.635 657.009 189.657C666.807 140.784 663.31 97.4561 645.44 69.6122L641.232 72.3128ZM216.932 532.858C143.581 532.858 66.3052 526.292 4.01059 498.089L1.9484 502.644C65.2594 531.307 143.434 537.858 216.932 537.858V532.858ZM499.457 3.31535C461.28 142.299 411.325 242.889 333.885 320.236C256.43 397.598 151.261 451.929 2.2414 497.978L3.71758 502.755C153.122 456.588 259.155 401.943 337.418 323.774C415.695 245.59 465.972 144.093 504.278 4.63973L499.457 3.31535Z" fill="#6F7A91"/>
<defs>
<linearGradient id="paint0_linear" x1="374.894" y1="694.822" x2="1144.72" y2="95.4568" gradientUnits="userSpaceOnUse">
<stop offset="0.137132" stop-color="#11224D"/>
<stop offset="0.207691" stop-color="#374362"/>
<stop offset="0.423032" stop-color="#8A92A1"/>
<stop offset="0.757172" stop-color="#EFEFED"/>
<stop offset="0.967755" stop-color="#FFFEF2"/>
</linearGradient>
<linearGradient id="paint1_linear" x1="593.847" y1="191.935" x2="144.117" y2="488.625" gradientUnits="userSpaceOnUse">
<stop stop-color="#11224D"/>
<stop offset="1" stop-color="#FFFEF2"/>
</linearGradient>
</defs>
</svg>
