<?xml version="1.0" encoding="utf-8"?><!DOCTYPE svg PUBLIC "-//W3C//DTD SVG 1.1//EN" "http://www.w3.org/Graphics/SVG/1.1/DTD/svg11.dtd"><svg version="1.1" xmlns="http://www.w3.org/2000/svg" xmlns:xlink="http://www.w3.org/1999/xlink" x="0px" y="0px" viewBox="0 0 96.41 100" enable-background="new 0 0 96.41 100" xml:space="preserve"><g><path fill="#010101" d="M7.469,34.863c-0.798-5.117,6.582-6.673,7.771-1.439l2.007,10.026l7.506,0.012
		c2.189,0,3.331,1.75,3.331,3.373v13.628c0,3.313-4.716,3.292-4.716-0.058c0-3.106,0-10.61,0-10.61h-9.585
		c-2.23,0-3.637-1.53-3.981-3.28L7.469,34.863z"></path><path fill="#010101" d="M10.972,29.333c2.438,0.016,4.423-1.96,4.439-4.396c0.009-2.445-1.965-4.435-4.404-4.443
		c-2.445-0.011-4.431,1.957-4.438,4.396C6.557,27.34,8.523,29.33,10.972,29.333z"></path><path fill="#010101" d="M2.522,39.062c-0.525-2.85,3.218-3.528,3.734-0.682l1.66,8.936c0.374,1.856,1.732,3.445,3.67,4.024
		c0.601,0.179,1.217,0.2,1.812,0.246l5.415,0.029c2.879-0.021,2.86,3.776-0.033,3.763l-5.7-0.025c-0.864,0-1.75-0.128-2.618-0.38
		c-3.371-1.009-5.717-3.793-6.335-7.019L2.522,39.062z"></path><path fill="#010101" d="M74.731,62.682c0.201-5.177,7.744-5.282,7.906,0.075l0.018,8.806l7.362,1.457
		c2.149,0.419,2.936,2.356,2.622,3.945l-2.612,13.376c-0.635,3.255-5.256,2.329-4.614-0.961c0.599-3.056,2.03-10.414,2.03-10.414
		l-9.407-1.839c-2.187-0.426-3.267-2.198-3.272-3.989L74.731,62.682z"></path><path fill="#010101" d="M78.738,57.752c2.391,0.479,4.724-1.081,5.204-3.474c0.477-2.395-1.073-4.72-3.471-5.198
		c-2.395-0.482-4.724,1.07-5.202,3.464C74.787,54.94,76.343,57.268,78.738,57.752z"></path><path fill="#010101" d="M69.045,64.433c0.042-2.891,3.842-2.84,3.799,0.051l-0.087,9.079c0.016,1.895,1.037,3.718,2.833,4.659
		c0.552,0.287,1.152,0.429,1.731,0.584l5.306,1.063c2.83,0.54,2.084,4.259-0.748,3.69l-5.584-1.119
		c-0.86-0.167-1.697-0.454-2.505-0.876c-3.116-1.63-4.887-4.809-4.871-8.089L69.045,64.433z"></path><circle fill="#010101" cx="65.191" cy="47.368" r="1.062"></circle><circle fill="#010101" cx="65.706" cy="50.522" r="1.062"></circle><circle fill="#010101" cx="66.224" cy="53.433" r="1.061"></circle><circle fill="#010101" cx="66.745" cy="56.344" r="1.062"></circle><circle fill="#010101" cx="70.76" cy="46.821" r="1.061"></circle><circle fill="#010101" cx="68.334" cy="48.655" r="1.062"></circle><circle fill="#010101" cx="67.454" cy="45.56" r="1.062"></circle><circle fill="#010101" cx="71.422" cy="49.886" r="1.061"></circle><circle fill="#010101" cx="74.074" cy="47.998" r="1.062"></circle><circle fill="#010101" cx="68.973" cy="51.725" r="1.062"></circle><circle fill="#010101" cx="69.897" cy="54.675" r="1.061"></circle><circle fill="#010101" cx="72.42" cy="52.807" r="1.062"></circle><circle fill="#010101" cx="70.782" cy="57.644" r="1.061"></circle><circle fill="#010101" cx="73.058" cy="55.818" r="1.061"></circle><path fill="#010101" d="M0,100h93.764c0,0-24.045-17.768-50.11-28.292C23.806,63.695,8.031,60.237,0,58.847V100z"></path><path fill="#010101" d="M61.535,46.168c2.439-0.021,4.401-2.017,4.387-4.454c-0.021-2.443-2.018-4.414-4.455-4.389
		c-2.448,0.018-4.409,2.013-4.384,4.451C57.092,44.223,59.09,46.188,61.535,46.168z"></path><path fill="#010101" d="M31.939,47.492c-0.321-2.875,3.451-3.293,3.771-0.422l1.046,9.031c0.248,1.874,1.492,3.556,3.385,4.265
		c0.581,0.219,1.197,0.283,1.79,0.372l5.398,0.396c2.877,0.178,2.599,3.966-0.291,3.753l-5.681-0.413
		c-0.858-0.059-1.736-0.25-2.583-0.56c-3.304-1.24-5.448-4.174-5.842-7.44L31.939,47.492z"></path><path fill="#010101" d="M57.891,56.118c-0.021-1.622-1.186-3.357-3.371-3.331l-4.412-0.089l5.594-4.175
		c1.62-1.432,1.767-3.91,0.333-5.529c-1.436-1.616-3.908-1.769-5.531-0.332l-10.748,9.522c-1.618,1.44-1.769,3.916-0.333,5.534
		c0.767,0.866,2.178,1.54,4.164,1.528c0.016,0,0.025,0.006,0.039,0.006l9.585-0.12c0,0,0.093,7.508,0.125,10.611
		c0.043,3.351,4.757,3.315,4.721,0.006L57.891,56.118z"></path><path fill="#010101" d="M96.191,23.798c-0.088-0.167-7.169-13.464-21.491-12.944l-2.219-5.416c0,0-6.529-0.106-14.382,5.07
		c-3.06,2.019-8.178,7.928-8.178,7.928l3.944,4.108c-0.51,0.672-1.012,1.344-1.496,2c-3.394,4.592-6.37,8.523-10.652,8.217
		c-5.938-0.463-7.341-3.865-9.308-9.839c-1.604-4.876-3.424-10.398-9.554-13.463c-8.143-4.075-17.739,1.116-18.145,1.339
		c-0.945,0.521-1.288,1.708-0.769,2.656c0.519,0.943,1.709,1.294,2.656,0.773c0.082-0.041,8.215-4.41,14.506-1.269
		c4.671,2.334,6.086,6.634,7.585,11.185c1.825,5.543,3.896,11.829,12.724,12.52c0.294,0.021,0.581,0.033,0.868,0.033
		c5.979,0,9.668-4.993,13.238-9.829c2.329-3.15,4.733-6.382,7.789-8.443V27.9h2.652V17.001c1.732-0.769,3.377-1.317,4.935-1.672
		v18.53h2.496V14.901c1.798-0.196,3.474-0.146,5.014,0.103v23.624H80.9V15.599c1.859,0.587,3.491,1.44,4.903,2.409v16.248H88.3
		V20.01c2.816,2.629,4.271,5.313,4.419,5.592c0.496,0.953,1.678,1.331,2.639,0.831C96.312,25.936,96.687,24.759,96.191,23.798z"></path><circle fill="#010101" cx="51.361" cy="10.771" r="2.502"></circle><circle fill="#010101" cx="57.021" cy="5.115" r="2.501"></circle><circle fill="#010101" cx="64.17" cy="2.502" r="2.502"></circle></g></svg>