<svg width="55px" height="55px" viewBox="0 0 55 55" version="1.1" xmlns="http://www.w3.org/2000/svg" xmlns:xlink="http://www.w3.org/1999/xlink">
    <!-- Generator: Sketch 50.2 (55047) - http://www.bohemiancoding.com/sketch -->
    
    <desc>Created with Sketch.</desc>
    <defs></defs>
    <g stroke="none" stroke-width="1" fill="none" fill-rule="evenodd">
        <g transform="translate(-100.000000, -1396.000000)">
            <g transform="translate(100.000000, 1396.000000)">
                <g>
                    <path d="M54.1768691,34.1525872 C50.5035091,48.8847033 35.5805916,57.8504717 20.8450378,54.1766808 C6.11550026,50.5037494 -2.85131414,35.5817133 0.823764782,20.8504566 C4.49540583,6.11662171 19.4183233,-2.85000604 34.1495798,0.822925431 C48.8842742,4.49585691 57.8502291,19.4196117 54.1768691,34.1525872 Z" fill="#FFB458" fill-rule="nonzero"></path>
                    <path d="M38.929435,25.0706512 C39.4912366,21.3929867 36.6319575,19.4159613 32.7222769,18.0970807 L33.9905198,13.1152185 L30.8939964,12.3594749 L29.6592676,17.2100535 C28.8452285,17.0114009 28.0091408,16.8239765 27.1783447,16.6382795 L28.421893,11.7557437 L25.3271334,11 L24.0580086,15.9801347 C23.3841995,15.8298497 22.7227376,15.6812921 22.0806786,15.5249611 L22.0842064,15.5094144 L17.8138087,14.4651926 L16.9900682,17.704094 C16.9900682,17.704094 19.2875457,18.2197271 19.2390385,18.2516842 C20.4931702,18.5583002 20.7198311,19.3710485 20.6819073,20.015374 L19.2372746,25.6907929 C19.3237056,25.7123856 19.4357132,25.743479 19.5591861,25.7918466 C19.455998,25.7667991 19.3457544,25.7391605 19.2319829,25.7123856 L17.2070277,33.6628088 C17.0535686,34.0359302 16.664629,34.5956124 15.7879715,34.3831404 C15.8188398,34.4271895 13.5372373,33.8329591 13.5372373,33.8329591 L12,37.3041976 L16.0296256,38.2879599 C16.7792824,38.4719295 17.513946,38.6645362 18.2371443,38.8459147 L16.9556722,43.8847815 L20.0486678,44.6405251 L21.3177926,39.6552082 C22.1626999,39.879772 22.9829126,40.0870617 23.7854863,40.2822595 L22.5207713,45.2442563 L25.6172947,46 L26.8987668,40.970634 C32.1789963,41.949214 36.1495313,41.5544999 37.8208249,36.8775263 C39.1675612,33.1117637 37.7537968,30.9395405 34.975657,29.523061 C36.9988483,29.06616 38.5228564,27.762826 38.929435,25.0706512 Z M31.854439,34.7864916 C30.8975242,38.5522543 24.4231356,36.5164968 22.3240966,36.0060459 L24.0244945,29.3304543 C26.1235335,29.8434963 32.8545693,30.8592158 31.854439,34.7864916 Z M32.8122358,25.0162377 C31.9391061,28.4416998 26.5503969,26.7013301 24.8023737,26.2746588 L26.3440208,20.2200726 C28.092044,20.6467438 33.7215253,21.4430817 32.8122358,25.0162377 Z" fill="#FFFFFF" fill-rule="nonzero"></path>
                </g>
            </g>
        </g>
    </g>
</svg>
