<svg width="30px" height="20px" viewBox="0 0 30 20" version="1.1" xmlns="http://www.w3.org/2000/svg" xmlns:xlink="http://www.w3.org/1999/xlink">
    <!-- Generator: Sketch 50.2 (55047) - http://www.bohemiancoding.com/sketch -->
    
    <desc>Created with Sketch.</desc>
    <defs></defs>
    <g stroke="none" stroke-width="1" fill="none" fill-rule="evenodd">
        <g transform="translate(-340.000000, -101.000000)" fill-rule="nonzero">
            <g>
                <g>
                    <g transform="translate(322.000000, 0.000000)">
                        <g transform="translate(-2.000000, 81.000000)">
                            <g transform="translate(20.000000, 20.000000)">
                                <rect fill="#003399" x="0" y="0" width="30" height="20"></rect>
                                <g transform="translate(6.111111, 1.111111)" fill="#FFCC00">
                                    <g transform="translate(6.666667, 0.000000)">
                                        <g>
                                            <g transform="translate(1.111111, 1.111111)">
                                                <polygon transform="translate(1.467800, 0.700041) rotate(18.000000) translate(-1.467800, -0.700041) " points="0.912244179 0.144485284 0.912244179 1.25559639 1.46779973 1.25559639"></polygon>
                                                <g transform="translate(1.111111, 1.111111) scale(-1, 1) translate(-1.111111, -1.111111) ">
                                                    <polygon transform="translate(1.467800, 0.700041) rotate(18.000000) translate(-1.467800, -0.700041) " points="0.912244179 0.144485284 0.912244179 1.25559639 1.46779973 1.25559639"></polygon>
                                                </g>
                                            </g>
                                            <g>
                                                <g transform="translate(2.222222, 2.222222) rotate(72.000000) translate(-2.222222, -2.222222) translate(1.111111, 1.111111)">
                                                    <g>
                                                        <polygon transform="translate(1.467800, 0.700041) rotate(18.000000) translate(-1.467800, -0.700041) " points="0.912244179 0.144485284 0.912244179 1.25559639 1.46779973 1.25559639"></polygon>
                                                        <g transform="translate(1.111111, 1.111111) scale(-1, 1) translate(-1.111111, -1.111111) ">
                                                            <polygon transform="translate(1.467800, 0.700041) rotate(18.000000) translate(-1.467800, -0.700041) " points="0.912244179 0.144485284 0.912244179 1.25559639 1.46779973 1.25559639"></polygon>
                                                        </g>
                                                    </g>
                                                </g>
                                                <g transform="translate(2.222222, 2.222222) rotate(144.000000) translate(-2.222222, -2.222222) translate(1.111111, 1.111111)">
                                                    <g>
                                                        <polygon transform="translate(1.467800, 0.700041) rotate(18.000000) translate(-1.467800, -0.700041) " points="0.912244179 0.144485284 0.912244179 1.25559639 1.46779973 1.25559639"></polygon>
                                                        <g transform="translate(1.111111, 1.111111) scale(-1, 1) translate(-1.111111, -1.111111) ">
                                                            <polygon transform="translate(1.467800, 0.700041) rotate(18.000000) translate(-1.467800, -0.700041) " points="0.912244179 0.144485284 0.912244179 1.25559639 1.46779973 1.25559639"></polygon>
                                                        </g>
                                                    </g>
                                                </g>
                                            </g>
                                            <g transform="translate(2.222222, 2.222222) scale(-1, 1) translate(-2.222222, -2.222222) ">
                                                <g>
                                                    <g transform="translate(2.222222, 2.222222) rotate(72.000000) translate(-2.222222, -2.222222) translate(1.111111, 1.111111)">
                                                        <g>
                                                            <polygon transform="translate(1.467800, 0.700041) rotate(18.000000) translate(-1.467800, -0.700041) " points="0.912244179 0.144485284 0.912244179 1.25559639 1.46779973 1.25559639"></polygon>
                                                            <g transform="translate(1.111111, 1.111111) scale(-1, 1) translate(-1.111111, -1.111111) ">
                                                                <polygon transform="translate(1.467800, 0.700041) rotate(18.000000) translate(-1.467800, -0.700041) " points="0.912244179 0.144485284 0.912244179 1.25559639 1.46779973 1.25559639"></polygon>
                                                            </g>
                                                        </g>
                                                    </g>
                                                    <g transform="translate(2.222222, 2.222222) rotate(144.000000) translate(-2.222222, -2.222222) translate(1.111111, 1.111111)">
                                                        <g>
                                                            <polygon transform="translate(1.467800, 0.700041) rotate(18.000000) translate(-1.467800, -0.700041) " points="0.912244179 0.144485284 0.912244179 1.25559639 1.46779973 1.25559639"></polygon>
                                                            <g transform="translate(1.111111, 1.111111) scale(-1, 1) translate(-1.111111, -1.111111) ">
                                                                <polygon transform="translate(1.467800, 0.700041) rotate(18.000000) translate(-1.467800, -0.700041) " points="0.912244179 0.144485284 0.912244179 1.25559639 1.46779973 1.25559639"></polygon>
                                                            </g>
                                                        </g>
                                                    </g>
                                                </g>
                                            </g>
                                        </g>
                                    </g>
                                    <g transform="translate(6.666667, 13.333333)">
                                        <g>
                                            <g transform="translate(1.111111, 1.111111)">
                                                <polygon transform="translate(1.467800, 0.700041) rotate(18.000000) translate(-1.467800, -0.700041) " points="0.912244179 0.144485284 0.912244179 1.25559639 1.46779973 1.25559639"></polygon>
                                                <g transform="translate(1.111111, 1.111111) scale(-1, 1) translate(-1.111111, -1.111111) ">
                                                    <polygon transform="translate(1.467800, 0.700041) rotate(18.000000) translate(-1.467800, -0.700041) " points="0.912244179 0.144485284 0.912244179 1.25559639 1.46779973 1.25559639"></polygon>
                                                </g>
                                            </g>
                                            <g>
                                                <g transform="translate(2.222222, 2.222222) rotate(72.000000) translate(-2.222222, -2.222222) translate(1.111111, 1.111111)">
                                                    <g>
                                                        <polygon transform="translate(1.467800, 0.700041) rotate(18.000000) translate(-1.467800, -0.700041) " points="0.912244179 0.144485284 0.912244179 1.25559639 1.46779973 1.25559639"></polygon>
                                                        <g transform="translate(1.111111, 1.111111) scale(-1, 1) translate(-1.111111, -1.111111) ">
                                                            <polygon transform="translate(1.467800, 0.700041) rotate(18.000000) translate(-1.467800, -0.700041) " points="0.912244179 0.144485284 0.912244179 1.25559639 1.46779973 1.25559639"></polygon>
                                                        </g>
                                                    </g>
                                                </g>
                                                <g transform="translate(2.222222, 2.222222) rotate(144.000000) translate(-2.222222, -2.222222) translate(1.111111, 1.111111)">
                                                    <g>
                                                        <polygon transform="translate(1.467800, 0.700041) rotate(18.000000) translate(-1.467800, -0.700041) " points="0.912244179 0.144485284 0.912244179 1.25559639 1.46779973 1.25559639"></polygon>
                                                        <g transform="translate(1.111111, 1.111111) scale(-1, 1) translate(-1.111111, -1.111111) ">
                                                            <polygon transform="translate(1.467800, 0.700041) rotate(18.000000) translate(-1.467800, -0.700041) " points="0.912244179 0.144485284 0.912244179 1.25559639 1.46779973 1.25559639"></polygon>
                                                        </g>
                                                    </g>
                                                </g>
                                            </g>
                                            <g transform="translate(2.222222, 2.222222) scale(-1, 1) translate(-2.222222, -2.222222) ">
                                                <g>
                                                    <g transform="translate(2.222222, 2.222222) rotate(72.000000) translate(-2.222222, -2.222222) translate(1.111111, 1.111111)">
                                                        <g>
                                                            <polygon transform="translate(1.467800, 0.700041) rotate(18.000000) translate(-1.467800, -0.700041) " points="0.912244179 0.144485284 0.912244179 1.25559639 1.46779973 1.25559639"></polygon>
                                                            <g transform="translate(1.111111, 1.111111) scale(-1, 1) translate(-1.111111, -1.111111) ">
                                                                <polygon transform="translate(1.467800, 0.700041) rotate(18.000000) translate(-1.467800, -0.700041) " points="0.912244179 0.144485284 0.912244179 1.25559639 1.46779973 1.25559639"></polygon>
                                                            </g>
                                                        </g>
                                                    </g>
                                                    <g transform="translate(2.222222, 2.222222) rotate(144.000000) translate(-2.222222, -2.222222) translate(1.111111, 1.111111)">
                                                        <g>
                                                            <polygon transform="translate(1.467800, 0.700041) rotate(18.000000) translate(-1.467800, -0.700041) " points="0.912244179 0.144485284 0.912244179 1.25559639 1.46779973 1.25559639"></polygon>
                                                            <g transform="translate(1.111111, 1.111111) scale(-1, 1) translate(-1.111111, -1.111111) ">
                                                                <polygon transform="translate(1.467800, 0.700041) rotate(18.000000) translate(-1.467800, -0.700041) " points="0.912244179 0.144485284 0.912244179 1.25559639 1.46779973 1.25559639"></polygon>
                                                            </g>
                                                        </g>
                                                    </g>
                                                </g>
                                            </g>
                                        </g>
                                    </g>
                                    <g>
                                        <g transform="translate(0.000000, 6.666667)">
                                            <g>
                                                <g transform="translate(1.111111, 1.111111)">
                                                    <polygon transform="translate(1.467800, 0.700041) rotate(18.000000) translate(-1.467800, -0.700041) " points="0.912244179 0.144485284 0.912244179 1.25559639 1.46779973 1.25559639"></polygon>
                                                    <g transform="translate(1.111111, 1.111111) scale(-1, 1) translate(-1.111111, -1.111111) ">
                                                        <polygon transform="translate(1.467800, 0.700041) rotate(18.000000) translate(-1.467800, -0.700041) " points="0.912244179 0.144485284 0.912244179 1.25559639 1.46779973 1.25559639"></polygon>
                                                    </g>
                                                </g>
                                                <g>
                                                    <g transform="translate(2.222222, 2.222222) rotate(72.000000) translate(-2.222222, -2.222222) translate(1.111111, 1.111111)">
                                                        <g>
                                                            <polygon transform="translate(1.467800, 0.700041) rotate(18.000000) translate(-1.467800, -0.700041) " points="0.912244179 0.144485284 0.912244179 1.25559639 1.46779973 1.25559639"></polygon>
                                                            <g transform="translate(1.111111, 1.111111) scale(-1, 1) translate(-1.111111, -1.111111) ">
                                                                <polygon transform="translate(1.467800, 0.700041) rotate(18.000000) translate(-1.467800, -0.700041) " points="0.912244179 0.144485284 0.912244179 1.25559639 1.46779973 1.25559639"></polygon>
                                                            </g>
                                                        </g>
                                                    </g>
                                                    <g transform="translate(2.222222, 2.222222) rotate(144.000000) translate(-2.222222, -2.222222) translate(1.111111, 1.111111)">
                                                        <g>
                                                            <polygon transform="translate(1.467800, 0.700041) rotate(18.000000) translate(-1.467800, -0.700041) " points="0.912244179 0.144485284 0.912244179 1.25559639 1.46779973 1.25559639"></polygon>
                                                            <g transform="translate(1.111111, 1.111111) scale(-1, 1) translate(-1.111111, -1.111111) ">
                                                                <polygon transform="translate(1.467800, 0.700041) rotate(18.000000) translate(-1.467800, -0.700041) " points="0.912244179 0.144485284 0.912244179 1.25559639 1.46779973 1.25559639"></polygon>
                                                            </g>
                                                        </g>
                                                    </g>
                                                </g>
                                                <g transform="translate(2.222222, 2.222222) scale(-1, 1) translate(-2.222222, -2.222222) ">
                                                    <g>
                                                        <g transform="translate(2.222222, 2.222222) rotate(72.000000) translate(-2.222222, -2.222222) translate(1.111111, 1.111111)">
                                                            <g>
                                                                <polygon transform="translate(1.467800, 0.700041) rotate(18.000000) translate(-1.467800, -0.700041) " points="0.912244179 0.144485284 0.912244179 1.25559639 1.46779973 1.25559639"></polygon>
                                                                <g transform="translate(1.111111, 1.111111) scale(-1, 1) translate(-1.111111, -1.111111) ">
                                                                    <polygon transform="translate(1.467800, 0.700041) rotate(18.000000) translate(-1.467800, -0.700041) " points="0.912244179 0.144485284 0.912244179 1.25559639 1.46779973 1.25559639"></polygon>
                                                                </g>
                                                            </g>
                                                        </g>
                                                        <g transform="translate(2.222222, 2.222222) rotate(144.000000) translate(-2.222222, -2.222222) translate(1.111111, 1.111111)">
                                                            <g>
                                                                <polygon transform="translate(1.467800, 0.700041) rotate(18.000000) translate(-1.467800, -0.700041) " points="0.912244179 0.144485284 0.912244179 1.25559639 1.46779973 1.25559639"></polygon>
                                                                <g transform="translate(1.111111, 1.111111) scale(-1, 1) translate(-1.111111, -1.111111) ">
                                                                    <polygon transform="translate(1.467800, 0.700041) rotate(18.000000) translate(-1.467800, -0.700041) " points="0.912244179 0.144485284 0.912244179 1.25559639 1.46779973 1.25559639"></polygon>
                                                                </g>
                                                            </g>
                                                        </g>
                                                    </g>
                                                </g>
                                            </g>
                                        </g>
                                        <g transform="translate(5.555556, 3.115386) rotate(-144.000000) translate(-5.555556, -3.115386) translate(3.333333, 0.893164)">
                                            <g>
                                                <g transform="translate(1.111111, 1.111111)">
                                                    <polygon transform="translate(1.467800, 0.700041) rotate(18.000000) translate(-1.467800, -0.700041) " points="0.912244179 0.144485284 0.912244179 1.25559639 1.46779973 1.25559639"></polygon>
                                                    <g transform="translate(1.111111, 1.111111) scale(-1, 1) translate(-1.111111, -1.111111) ">
                                                        <polygon transform="translate(1.467800, 0.700041) rotate(18.000000) translate(-1.467800, -0.700041) " points="0.912244179 0.144485284 0.912244179 1.25559639 1.46779973 1.25559639"></polygon>
                                                    </g>
                                                </g>
                                                <g>
                                                    <g transform="translate(2.222222, 2.222222) rotate(72.000000) translate(-2.222222, -2.222222) translate(1.111111, 1.111111)">
                                                        <g>
                                                            <polygon transform="translate(1.467800, 0.700041) rotate(18.000000) translate(-1.467800, -0.700041) " points="0.912244179 0.144485284 0.912244179 1.25559639 1.46779973 1.25559639"></polygon>
                                                            <g transform="translate(1.111111, 1.111111) scale(-1, 1) translate(-1.111111, -1.111111) ">
                                                                <polygon transform="translate(1.467800, 0.700041) rotate(18.000000) translate(-1.467800, -0.700041) " points="0.912244179 0.144485284 0.912244179 1.25559639 1.46779973 1.25559639"></polygon>
                                                            </g>
                                                        </g>
                                                    </g>
                                                    <g transform="translate(2.222222, 2.222222) rotate(144.000000) translate(-2.222222, -2.222222) translate(1.111111, 1.111111)">
                                                        <g>
                                                            <polygon transform="translate(1.467800, 0.700041) rotate(18.000000) translate(-1.467800, -0.700041) " points="0.912244179 0.144485284 0.912244179 1.25559639 1.46779973 1.25559639"></polygon>
                                                            <g transform="translate(1.111111, 1.111111) scale(-1, 1) translate(-1.111111, -1.111111) ">
                                                                <polygon transform="translate(1.467800, 0.700041) rotate(18.000000) translate(-1.467800, -0.700041) " points="0.912244179 0.144485284 0.912244179 1.25559639 1.46779973 1.25559639"></polygon>
                                                            </g>
                                                        </g>
                                                    </g>
                                                </g>
                                                <g transform="translate(2.222222, 2.222222) scale(-1, 1) translate(-2.222222, -2.222222) ">
                                                    <g>
                                                        <g transform="translate(2.222222, 2.222222) rotate(72.000000) translate(-2.222222, -2.222222) translate(1.111111, 1.111111)">
                                                            <g>
                                                                <polygon transform="translate(1.467800, 0.700041) rotate(18.000000) translate(-1.467800, -0.700041) " points="0.912244179 0.144485284 0.912244179 1.25559639 1.46779973 1.25559639"></polygon>
                                                                <g transform="translate(1.111111, 1.111111) scale(-1, 1) translate(-1.111111, -1.111111) ">
                                                                    <polygon transform="translate(1.467800, 0.700041) rotate(18.000000) translate(-1.467800, -0.700041) " points="0.912244179 0.144485284 0.912244179 1.25559639 1.46779973 1.25559639"></polygon>
                                                                </g>
                                                            </g>
                                                        </g>
                                                        <g transform="translate(2.222222, 2.222222) rotate(144.000000) translate(-2.222222, -2.222222) translate(1.111111, 1.111111)">
                                                            <g>
                                                                <polygon transform="translate(1.467800, 0.700041) rotate(18.000000) translate(-1.467800, -0.700041) " points="0.912244179 0.144485284 0.912244179 1.25559639 1.46779973 1.25559639"></polygon>
                                                                <g transform="translate(1.111111, 1.111111) scale(-1, 1) translate(-1.111111, -1.111111) ">
                                                                    <polygon transform="translate(1.467800, 0.700041) rotate(18.000000) translate(-1.467800, -0.700041) " points="0.912244179 0.144485284 0.912244179 1.25559639 1.46779973 1.25559639"></polygon>
                                                                </g>
                                                            </g>
                                                        </g>
                                                    </g>
                                                </g>
                                            </g>
                                        </g>
                                        <g transform="translate(3.115386, 5.555556) rotate(144.000000) translate(-3.115386, -5.555556) translate(0.893164, 3.333333)">
                                            <g>
                                                <g transform="translate(1.111111, 1.111111)">
                                                    <polygon transform="translate(1.467800, 0.700041) rotate(18.000000) translate(-1.467800, -0.700041) " points="0.912244179 0.144485284 0.912244179 1.25559639 1.46779973 1.25559639"></polygon>
                                                    <g transform="translate(1.111111, 1.111111) scale(-1, 1) translate(-1.111111, -1.111111) ">
                                                        <polygon transform="translate(1.467800, 0.700041) rotate(18.000000) translate(-1.467800, -0.700041) " points="0.912244179 0.144485284 0.912244179 1.25559639 1.46779973 1.25559639"></polygon>
                                                    </g>
                                                </g>
                                                <g>
                                                    <g transform="translate(2.222222, 2.222222) rotate(72.000000) translate(-2.222222, -2.222222) translate(1.111111, 1.111111)">
                                                        <g>
                                                            <polygon transform="translate(1.467800, 0.700041) rotate(18.000000) translate(-1.467800, -0.700041) " points="0.912244179 0.144485284 0.912244179 1.25559639 1.46779973 1.25559639"></polygon>
                                                            <g transform="translate(1.111111, 1.111111) scale(-1, 1) translate(-1.111111, -1.111111) ">
                                                                <polygon transform="translate(1.467800, 0.700041) rotate(18.000000) translate(-1.467800, -0.700041) " points="0.912244179 0.144485284 0.912244179 1.25559639 1.46779973 1.25559639"></polygon>
                                                            </g>
                                                        </g>
                                                    </g>
                                                    <g transform="translate(2.222222, 2.222222) rotate(144.000000) translate(-2.222222, -2.222222) translate(1.111111, 1.111111)">
                                                        <g>
                                                            <polygon transform="translate(1.467800, 0.700041) rotate(18.000000) translate(-1.467800, -0.700041) " points="0.912244179 0.144485284 0.912244179 1.25559639 1.46779973 1.25559639"></polygon>
                                                            <g transform="translate(1.111111, 1.111111) scale(-1, 1) translate(-1.111111, -1.111111) ">
                                                                <polygon transform="translate(1.467800, 0.700041) rotate(18.000000) translate(-1.467800, -0.700041) " points="0.912244179 0.144485284 0.912244179 1.25559639 1.46779973 1.25559639"></polygon>
                                                            </g>
                                                        </g>
                                                    </g>
                                                </g>
                                                <g transform="translate(2.222222, 2.222222) scale(-1, 1) translate(-2.222222, -2.222222) ">
                                                    <g>
                                                        <g transform="translate(2.222222, 2.222222) rotate(72.000000) translate(-2.222222, -2.222222) translate(1.111111, 1.111111)">
                                                            <g>
                                                                <polygon transform="translate(1.467800, 0.700041) rotate(18.000000) translate(-1.467800, -0.700041) " points="0.912244179 0.144485284 0.912244179 1.25559639 1.46779973 1.25559639"></polygon>
                                                                <g transform="translate(1.111111, 1.111111) scale(-1, 1) translate(-1.111111, -1.111111) ">
                                                                    <polygon transform="translate(1.467800, 0.700041) rotate(18.000000) translate(-1.467800, -0.700041) " points="0.912244179 0.144485284 0.912244179 1.25559639 1.46779973 1.25559639"></polygon>
                                                                </g>
                                                            </g>
                                                        </g>
                                                        <g transform="translate(2.222222, 2.222222) rotate(144.000000) translate(-2.222222, -2.222222) translate(1.111111, 1.111111)">
                                                            <g>
                                                                <polygon transform="translate(1.467800, 0.700041) rotate(18.000000) translate(-1.467800, -0.700041) " points="0.912244179 0.144485284 0.912244179 1.25559639 1.46779973 1.25559639"></polygon>
                                                                <g transform="translate(1.111111, 1.111111) scale(-1, 1) translate(-1.111111, -1.111111) ">
                                                                    <polygon transform="translate(1.467800, 0.700041) rotate(18.000000) translate(-1.467800, -0.700041) " points="0.912244179 0.144485284 0.912244179 1.25559639 1.46779973 1.25559639"></polygon>
                                                                </g>
                                                            </g>
                                                        </g>
                                                    </g>
                                                </g>
                                            </g>
                                        </g>
                                        <g transform="translate(3.115386, 12.222222) rotate(72.000000) translate(-3.115386, -12.222222) translate(0.893164, 10.000000)">
                                            <g>
                                                <g transform="translate(1.111111, 1.111111)">
                                                    <polygon transform="translate(1.467800, 0.700041) rotate(18.000000) translate(-1.467800, -0.700041) " points="0.912244179 0.144485284 0.912244179 1.25559639 1.46779973 1.25559639"></polygon>
                                                    <g transform="translate(1.111111, 1.111111) scale(-1, 1) translate(-1.111111, -1.111111) ">
                                                        <polygon transform="translate(1.467800, 0.700041) rotate(18.000000) translate(-1.467800, -0.700041) " points="0.912244179 0.144485284 0.912244179 1.25559639 1.46779973 1.25559639"></polygon>
                                                    </g>
                                                </g>
                                                <g>
                                                    <g transform="translate(2.222222, 2.222222) rotate(72.000000) translate(-2.222222, -2.222222) translate(1.111111, 1.111111)">
                                                        <g>
                                                            <polygon transform="translate(1.467800, 0.700041) rotate(18.000000) translate(-1.467800, -0.700041) " points="0.912244179 0.144485284 0.912244179 1.25559639 1.46779973 1.25559639"></polygon>
                                                            <g transform="translate(1.111111, 1.111111) scale(-1, 1) translate(-1.111111, -1.111111) ">
                                                                <polygon transform="translate(1.467800, 0.700041) rotate(18.000000) translate(-1.467800, -0.700041) " points="0.912244179 0.144485284 0.912244179 1.25559639 1.46779973 1.25559639"></polygon>
                                                            </g>
                                                        </g>
                                                    </g>
                                                    <g transform="translate(2.222222, 2.222222) rotate(144.000000) translate(-2.222222, -2.222222) translate(1.111111, 1.111111)">
                                                        <g>
                                                            <polygon transform="translate(1.467800, 0.700041) rotate(18.000000) translate(-1.467800, -0.700041) " points="0.912244179 0.144485284 0.912244179 1.25559639 1.46779973 1.25559639"></polygon>
                                                            <g transform="translate(1.111111, 1.111111) scale(-1, 1) translate(-1.111111, -1.111111) ">
                                                                <polygon transform="translate(1.467800, 0.700041) rotate(18.000000) translate(-1.467800, -0.700041) " points="0.912244179 0.144485284 0.912244179 1.25559639 1.46779973 1.25559639"></polygon>
                                                            </g>
                                                        </g>
                                                    </g>
                                                </g>
                                                <g transform="translate(2.222222, 2.222222) scale(-1, 1) translate(-2.222222, -2.222222) ">
                                                    <g>
                                                        <g transform="translate(2.222222, 2.222222) rotate(72.000000) translate(-2.222222, -2.222222) translate(1.111111, 1.111111)">
                                                            <g>
                                                                <polygon transform="translate(1.467800, 0.700041) rotate(18.000000) translate(-1.467800, -0.700041) " points="0.912244179 0.144485284 0.912244179 1.25559639 1.46779973 1.25559639"></polygon>
                                                                <g transform="translate(1.111111, 1.111111) scale(-1, 1) translate(-1.111111, -1.111111) ">
                                                                    <polygon transform="translate(1.467800, 0.700041) rotate(18.000000) translate(-1.467800, -0.700041) " points="0.912244179 0.144485284 0.912244179 1.25559639 1.46779973 1.25559639"></polygon>
                                                                </g>
                                                            </g>
                                                        </g>
                                                        <g transform="translate(2.222222, 2.222222) rotate(144.000000) translate(-2.222222, -2.222222) translate(1.111111, 1.111111)">
                                                            <g>
                                                                <polygon transform="translate(1.467800, 0.700041) rotate(18.000000) translate(-1.467800, -0.700041) " points="0.912244179 0.144485284 0.912244179 1.25559639 1.46779973 1.25559639"></polygon>
                                                                <g transform="translate(1.111111, 1.111111) scale(-1, 1) translate(-1.111111, -1.111111) ">
                                                                    <polygon transform="translate(1.467800, 0.700041) rotate(18.000000) translate(-1.467800, -0.700041) " points="0.912244179 0.144485284 0.912244179 1.25559639 1.46779973 1.25559639"></polygon>
                                                                </g>
                                                            </g>
                                                        </g>
                                                    </g>
                                                </g>
                                            </g>
                                        </g>
                                        <g transform="translate(5.555556, 14.662392) rotate(72.000000) translate(-5.555556, -14.662392) translate(3.333333, 12.440169)">
                                            <g>
                                                <g transform="translate(1.111111, 1.111111)">
                                                    <polygon transform="translate(1.467800, 0.700041) rotate(18.000000) translate(-1.467800, -0.700041) " points="0.912244179 0.144485284 0.912244179 1.25559639 1.46779973 1.25559639"></polygon>
                                                    <g transform="translate(1.111111, 1.111111) scale(-1, 1) translate(-1.111111, -1.111111) ">
                                                        <polygon transform="translate(1.467800, 0.700041) rotate(18.000000) translate(-1.467800, -0.700041) " points="0.912244179 0.144485284 0.912244179 1.25559639 1.46779973 1.25559639"></polygon>
                                                    </g>
                                                </g>
                                                <g>
                                                    <g transform="translate(2.222222, 2.222222) rotate(72.000000) translate(-2.222222, -2.222222) translate(1.111111, 1.111111)">
                                                        <g>
                                                            <polygon transform="translate(1.467800, 0.700041) rotate(18.000000) translate(-1.467800, -0.700041) " points="0.912244179 0.144485284 0.912244179 1.25559639 1.46779973 1.25559639"></polygon>
                                                            <g transform="translate(1.111111, 1.111111) scale(-1, 1) translate(-1.111111, -1.111111) ">
                                                                <polygon transform="translate(1.467800, 0.700041) rotate(18.000000) translate(-1.467800, -0.700041) " points="0.912244179 0.144485284 0.912244179 1.25559639 1.46779973 1.25559639"></polygon>
                                                            </g>
                                                        </g>
                                                    </g>
                                                    <g transform="translate(2.222222, 2.222222) rotate(144.000000) translate(-2.222222, -2.222222) translate(1.111111, 1.111111)">
                                                        <g>
                                                            <polygon transform="translate(1.467800, 0.700041) rotate(18.000000) translate(-1.467800, -0.700041) " points="0.912244179 0.144485284 0.912244179 1.25559639 1.46779973 1.25559639"></polygon>
                                                            <g transform="translate(1.111111, 1.111111) scale(-1, 1) translate(-1.111111, -1.111111) ">
                                                                <polygon transform="translate(1.467800, 0.700041) rotate(18.000000) translate(-1.467800, -0.700041) " points="0.912244179 0.144485284 0.912244179 1.25559639 1.46779973 1.25559639"></polygon>
                                                            </g>
                                                        </g>
                                                    </g>
                                                </g>
                                                <g transform="translate(2.222222, 2.222222) scale(-1, 1) translate(-2.222222, -2.222222) ">
                                                    <g>
                                                        <g transform="translate(2.222222, 2.222222) rotate(72.000000) translate(-2.222222, -2.222222) translate(1.111111, 1.111111)">
                                                            <g>
                                                                <polygon transform="translate(1.467800, 0.700041) rotate(18.000000) translate(-1.467800, -0.700041) " points="0.912244179 0.144485284 0.912244179 1.25559639 1.46779973 1.25559639"></polygon>
                                                                <g transform="translate(1.111111, 1.111111) scale(-1, 1) translate(-1.111111, -1.111111) ">
                                                                    <polygon transform="translate(1.467800, 0.700041) rotate(18.000000) translate(-1.467800, -0.700041) " points="0.912244179 0.144485284 0.912244179 1.25559639 1.46779973 1.25559639"></polygon>
                                                                </g>
                                                            </g>
                                                        </g>
                                                        <g transform="translate(2.222222, 2.222222) rotate(144.000000) translate(-2.222222, -2.222222) translate(1.111111, 1.111111)">
                                                            <g>
                                                                <polygon transform="translate(1.467800, 0.700041) rotate(18.000000) translate(-1.467800, -0.700041) " points="0.912244179 0.144485284 0.912244179 1.25559639 1.46779973 1.25559639"></polygon>
                                                                <g transform="translate(1.111111, 1.111111) scale(-1, 1) translate(-1.111111, -1.111111) ">
                                                                    <polygon transform="translate(1.467800, 0.700041) rotate(18.000000) translate(-1.467800, -0.700041) " points="0.912244179 0.144485284 0.912244179 1.25559639 1.46779973 1.25559639"></polygon>
                                                                </g>
                                                            </g>
                                                        </g>
                                                    </g>
                                                </g>
                                            </g>
                                        </g>
                                    </g>
                                    <g transform="translate(13.777778, 9.000000) scale(-1, 1) translate(-13.777778, -9.000000) translate(8.777778, 0.000000)">
                                        <g>
                                            <g transform="translate(0.000000, 6.666667)">
                                                <g>
                                                    <g transform="translate(2.111111, 1.111111)">
                                                        <polygon transform="translate(1.467800, 0.700041) rotate(18.000000) translate(-1.467800, -0.700041) " points="0.912244179 0.144485284 0.912244179 1.25559639 1.46779973 1.25559639"></polygon>
                                                        <g transform="translate(1.111111, 1.111111) scale(-1, 1) translate(-1.111111, -1.111111) ">
                                                            <polygon transform="translate(1.467800, 0.700041) rotate(18.000000) translate(-1.467800, -0.700041) " points="0.912244179 0.144485284 0.912244179 1.25559639 1.46779973 1.25559639"></polygon>
                                                        </g>
                                                    </g>
                                                    <g transform="translate(1.000000, 0.000000)">
                                                        <g transform="translate(2.222222, 2.222222) rotate(72.000000) translate(-2.222222, -2.222222) translate(1.111111, 1.111111)">
                                                            <g>
                                                                <polygon transform="translate(1.467800, 0.700041) rotate(18.000000) translate(-1.467800, -0.700041) " points="0.912244179 0.144485284 0.912244179 1.25559639 1.46779973 1.25559639"></polygon>
                                                                <g transform="translate(1.111111, 1.111111) scale(-1, 1) translate(-1.111111, -1.111111) ">
                                                                    <polygon transform="translate(1.467800, 0.700041) rotate(18.000000) translate(-1.467800, -0.700041) " points="0.912244179 0.144485284 0.912244179 1.25559639 1.46779973 1.25559639"></polygon>
                                                                </g>
                                                            </g>
                                                        </g>
                                                        <g transform="translate(2.222222, 2.222222) rotate(144.000000) translate(-2.222222, -2.222222) translate(1.111111, 1.111111)">
                                                            <g>
                                                                <polygon transform="translate(1.467800, 0.700041) rotate(18.000000) translate(-1.467800, -0.700041) " points="0.912244179 0.144485284 0.912244179 1.25559639 1.46779973 1.25559639"></polygon>
                                                                <g transform="translate(1.111111, 1.111111) scale(-1, 1) translate(-1.111111, -1.111111) ">
                                                                    <polygon transform="translate(1.467800, 0.700041) rotate(18.000000) translate(-1.467800, -0.700041) " points="0.912244179 0.144485284 0.912244179 1.25559639 1.46779973 1.25559639"></polygon>
                                                                </g>
                                                            </g>
                                                        </g>
                                                    </g>
                                                    <g transform="translate(2.944444, 2.500000) scale(-1, 1) translate(-2.944444, -2.500000) translate(0.444444, 0.000000)">
                                                        <g>
                                                            <g transform="translate(2.222222, 2.222222) rotate(72.000000) translate(-2.222222, -2.222222) translate(1.111111, 1.111111)">
                                                                <g>
                                                                    <polygon transform="translate(1.467800, 0.700041) rotate(18.000000) translate(-1.467800, -0.700041) " points="0.912244179 0.144485284 0.912244179 1.25559639 1.46779973 1.25559639"></polygon>
                                                                    <g transform="translate(1.111111, 1.111111) scale(-1, 1) translate(-1.111111, -1.111111) ">
                                                                        <polygon transform="translate(1.467800, 0.700041) rotate(18.000000) translate(-1.467800, -0.700041) " points="0.912244179 0.144485284 0.912244179 1.25559639 1.46779973 1.25559639"></polygon>
                                                                    </g>
                                                                </g>
                                                            </g>
                                                            <g transform="translate(2.377422, 2.246804) rotate(144.000000) translate(-2.377422, -2.246804) translate(0.377422, 1.246804)">
                                                                <g transform="translate(-0.000000, 0.000000)">
                                                                    <polygon transform="translate(2.467800, 0.700041) rotate(18.000000) translate(-2.467800, -0.700041) " points="1.91224418 0.144485284 1.91224418 1.25559639 2.46779973 1.25559639"></polygon>
                                                                    <g transform="translate(1.722222, 1.000000) scale(-1, 1) translate(-1.722222, -1.000000) translate(0.222222, 0.000000)">
                                                                        <polygon transform="translate(1.467800, 0.700041) rotate(18.000000) translate(-1.467800, -0.700041) " points="0.912244179 0.144485284 0.912244179 1.25559639 1.46779973 1.25559639"></polygon>
                                                                    </g>
                                                                </g>
                                                            </g>
                                                        </g>
                                                    </g>
                                                </g>
                                            </g>
                                            <g transform="translate(6.555556, 3.115386) rotate(-144.000000) translate(-6.555556, -3.115386) translate(4.333333, 0.893164)">
                                                <g>
                                                    <g transform="translate(1.111111, 1.111111)">
                                                        <polygon transform="translate(1.467800, 0.700041) rotate(18.000000) translate(-1.467800, -0.700041) " points="0.912244179 0.144485284 0.912244179 1.25559639 1.46779973 1.25559639"></polygon>
                                                        <g transform="translate(1.111111, 1.111111) scale(-1, 1) translate(-1.111111, -1.111111) ">
                                                            <polygon transform="translate(1.467800, 0.700041) rotate(18.000000) translate(-1.467800, -0.700041) " points="0.912244179 0.144485284 0.912244179 1.25559639 1.46779973 1.25559639"></polygon>
                                                        </g>
                                                    </g>
                                                    <g>
                                                        <g transform="translate(2.222222, 2.222222) rotate(72.000000) translate(-2.222222, -2.222222) translate(1.111111, 1.111111)">
                                                            <g>
                                                                <polygon transform="translate(1.467800, 0.700041) rotate(18.000000) translate(-1.467800, -0.700041) " points="0.912244179 0.144485284 0.912244179 1.25559639 1.46779973 1.25559639"></polygon>
                                                                <g transform="translate(1.111111, 1.111111) scale(-1, 1) translate(-1.111111, -1.111111) ">
                                                                    <polygon transform="translate(1.467800, 0.700041) rotate(18.000000) translate(-1.467800, -0.700041) " points="0.912244179 0.144485284 0.912244179 1.25559639 1.46779973 1.25559639"></polygon>
                                                                </g>
                                                            </g>
                                                        </g>
                                                        <g transform="translate(2.222222, 2.222222) rotate(144.000000) translate(-2.222222, -2.222222) translate(1.111111, 1.111111)">
                                                            <g>
                                                                <polygon transform="translate(1.467800, 0.700041) rotate(18.000000) translate(-1.467800, -0.700041) " points="0.912244179 0.144485284 0.912244179 1.25559639 1.46779973 1.25559639"></polygon>
                                                                <g transform="translate(1.111111, 1.111111) scale(-1, 1) translate(-1.111111, -1.111111) ">
                                                                    <polygon transform="translate(1.467800, 0.700041) rotate(18.000000) translate(-1.467800, -0.700041) " points="0.912244179 0.144485284 0.912244179 1.25559639 1.46779973 1.25559639"></polygon>
                                                                </g>
                                                            </g>
                                                        </g>
                                                    </g>
                                                    <g transform="translate(2.222222, 2.222222) scale(-1, 1) translate(-2.222222, -2.222222) ">
                                                        <g>
                                                            <g transform="translate(2.222222, 2.222222) rotate(72.000000) translate(-2.222222, -2.222222) translate(1.111111, 1.111111)">
                                                                <g>
                                                                    <polygon transform="translate(1.467800, 0.700041) rotate(18.000000) translate(-1.467800, -0.700041) " points="0.912244179 0.144485284 0.912244179 1.25559639 1.46779973 1.25559639"></polygon>
                                                                    <g transform="translate(1.111111, 1.111111) scale(-1, 1) translate(-1.111111, -1.111111) ">
                                                                        <polygon transform="translate(1.467800, 0.700041) rotate(18.000000) translate(-1.467800, -0.700041) " points="0.912244179 0.144485284 0.912244179 1.25559639 1.46779973 1.25559639"></polygon>
                                                                    </g>
                                                                </g>
                                                            </g>
                                                            <g transform="translate(2.222222, 2.222222) rotate(144.000000) translate(-2.222222, -2.222222) translate(1.111111, 1.111111)">
                                                                <g>
                                                                    <polygon transform="translate(1.467800, 0.700041) rotate(18.000000) translate(-1.467800, -0.700041) " points="0.912244179 0.144485284 0.912244179 1.25559639 1.46779973 1.25559639"></polygon>
                                                                    <g transform="translate(1.111111, 1.111111) scale(-1, 1) translate(-1.111111, -1.111111) ">
                                                                        <polygon transform="translate(1.467800, 0.700041) rotate(18.000000) translate(-1.467800, -0.700041) " points="0.912244179 0.144485284 0.912244179 1.25559639 1.46779973 1.25559639"></polygon>
                                                                    </g>
                                                                </g>
                                                            </g>
                                                        </g>
                                                    </g>
                                                </g>
                                            </g>
                                            <g transform="translate(4.115386, 5.555556) rotate(144.000000) translate(-4.115386, -5.555556) translate(1.893164, 3.333333)">
                                                <g>
                                                    <g transform="translate(1.111111, 1.111111)">
                                                        <polygon transform="translate(1.467800, 0.700041) rotate(18.000000) translate(-1.467800, -0.700041) " points="0.912244179 0.144485284 0.912244179 1.25559639 1.46779973 1.25559639"></polygon>
                                                        <g transform="translate(1.111111, 1.111111) scale(-1, 1) translate(-1.111111, -1.111111) ">
                                                            <polygon transform="translate(1.467800, 0.700041) rotate(18.000000) translate(-1.467800, -0.700041) " points="0.912244179 0.144485284 0.912244179 1.25559639 1.46779973 1.25559639"></polygon>
                                                        </g>
                                                    </g>
                                                    <g>
                                                        <g transform="translate(2.222222, 2.222222) rotate(72.000000) translate(-2.222222, -2.222222) translate(1.111111, 1.111111)">
                                                            <g>
                                                                <polygon transform="translate(1.467800, 0.700041) rotate(18.000000) translate(-1.467800, -0.700041) " points="0.912244179 0.144485284 0.912244179 1.25559639 1.46779973 1.25559639"></polygon>
                                                                <g transform="translate(1.111111, 1.111111) scale(-1, 1) translate(-1.111111, -1.111111) ">
                                                                    <polygon transform="translate(1.467800, 0.700041) rotate(18.000000) translate(-1.467800, -0.700041) " points="0.912244179 0.144485284 0.912244179 1.25559639 1.46779973 1.25559639"></polygon>
                                                                </g>
                                                            </g>
                                                        </g>
                                                        <g transform="translate(2.222222, 2.222222) rotate(144.000000) translate(-2.222222, -2.222222) translate(1.111111, 1.111111)">
                                                            <g>
                                                                <polygon transform="translate(1.467800, 0.700041) rotate(18.000000) translate(-1.467800, -0.700041) " points="0.912244179 0.144485284 0.912244179 1.25559639 1.46779973 1.25559639"></polygon>
                                                                <g transform="translate(1.111111, 1.111111) scale(-1, 1) translate(-1.111111, -1.111111) ">
                                                                    <polygon transform="translate(1.467800, 0.700041) rotate(18.000000) translate(-1.467800, -0.700041) " points="0.912244179 0.144485284 0.912244179 1.25559639 1.46779973 1.25559639"></polygon>
                                                                </g>
                                                            </g>
                                                        </g>
                                                    </g>
                                                    <g transform="translate(2.222222, 2.222222) scale(-1, 1) translate(-2.222222, -2.222222) ">
                                                        <g>
                                                            <g transform="translate(2.222222, 2.222222) rotate(72.000000) translate(-2.222222, -2.222222) translate(1.111111, 1.111111)">
                                                                <g>
                                                                    <polygon transform="translate(1.467800, 0.700041) rotate(18.000000) translate(-1.467800, -0.700041) " points="0.912244179 0.144485284 0.912244179 1.25559639 1.46779973 1.25559639"></polygon>
                                                                    <g transform="translate(1.111111, 1.111111) scale(-1, 1) translate(-1.111111, -1.111111) ">
                                                                        <polygon transform="translate(1.467800, 0.700041) rotate(18.000000) translate(-1.467800, -0.700041) " points="0.912244179 0.144485284 0.912244179 1.25559639 1.46779973 1.25559639"></polygon>
                                                                    </g>
                                                                </g>
                                                            </g>
                                                            <g transform="translate(2.222222, 2.222222) rotate(144.000000) translate(-2.222222, -2.222222) translate(1.111111, 1.111111)">
                                                                <g>
                                                                    <polygon transform="translate(1.467800, 0.700041) rotate(18.000000) translate(-1.467800, -0.700041) " points="0.912244179 0.144485284 0.912244179 1.25559639 1.46779973 1.25559639"></polygon>
                                                                    <g transform="translate(1.111111, 1.111111) scale(-1, 1) translate(-1.111111, -1.111111) ">
                                                                        <polygon transform="translate(1.467800, 0.700041) rotate(18.000000) translate(-1.467800, -0.700041) " points="0.912244179 0.144485284 0.912244179 1.25559639 1.46779973 1.25559639"></polygon>
                                                                    </g>
                                                                </g>
                                                            </g>
                                                        </g>
                                                    </g>
                                                </g>
                                            </g>
                                            <g transform="translate(4.115386, 12.222222) rotate(72.000000) translate(-4.115386, -12.222222) translate(1.893164, 10.000000)">
                                                <g>
                                                    <g transform="translate(1.111111, 1.111111)">
                                                        <polygon transform="translate(1.467800, 0.700041) rotate(18.000000) translate(-1.467800, -0.700041) " points="0.912244179 0.144485284 0.912244179 1.25559639 1.46779973 1.25559639"></polygon>
                                                        <g transform="translate(1.111111, 1.111111) scale(-1, 1) translate(-1.111111, -1.111111) ">
                                                            <polygon transform="translate(1.467800, 0.700041) rotate(18.000000) translate(-1.467800, -0.700041) " points="0.912244179 0.144485284 0.912244179 1.25559639 1.46779973 1.25559639"></polygon>
                                                        </g>
                                                    </g>
                                                    <g>
                                                        <g transform="translate(2.222222, 2.222222) rotate(72.000000) translate(-2.222222, -2.222222) translate(1.111111, 1.111111)">
                                                            <g>
                                                                <polygon transform="translate(1.467800, 0.700041) rotate(18.000000) translate(-1.467800, -0.700041) " points="0.912244179 0.144485284 0.912244179 1.25559639 1.46779973 1.25559639"></polygon>
                                                                <g transform="translate(1.111111, 1.111111) scale(-1, 1) translate(-1.111111, -1.111111) ">
                                                                    <polygon transform="translate(1.467800, 0.700041) rotate(18.000000) translate(-1.467800, -0.700041) " points="0.912244179 0.144485284 0.912244179 1.25559639 1.46779973 1.25559639"></polygon>
                                                                </g>
                                                            </g>
                                                        </g>
                                                        <g transform="translate(2.222222, 2.222222) rotate(144.000000) translate(-2.222222, -2.222222) translate(1.111111, 1.111111)">
                                                            <g>
                                                                <polygon transform="translate(1.467800, 0.700041) rotate(18.000000) translate(-1.467800, -0.700041) " points="0.912244179 0.144485284 0.912244179 1.25559639 1.46779973 1.25559639"></polygon>
                                                                <g transform="translate(1.111111, 1.111111) scale(-1, 1) translate(-1.111111, -1.111111) ">
                                                                    <polygon transform="translate(1.467800, 0.700041) rotate(18.000000) translate(-1.467800, -0.700041) " points="0.912244179 0.144485284 0.912244179 1.25559639 1.46779973 1.25559639"></polygon>
                                                                </g>
                                                            </g>
                                                        </g>
                                                    </g>
                                                    <g transform="translate(2.222222, 2.222222) scale(-1, 1) translate(-2.222222, -2.222222) ">
                                                        <g>
                                                            <g transform="translate(2.222222, 2.222222) rotate(72.000000) translate(-2.222222, -2.222222) translate(1.111111, 1.111111)">
                                                                <g>
                                                                    <polygon transform="translate(1.467800, 0.700041) rotate(18.000000) translate(-1.467800, -0.700041) " points="0.912244179 0.144485284 0.912244179 1.25559639 1.46779973 1.25559639"></polygon>
                                                                    <g transform="translate(1.111111, 1.111111) scale(-1, 1) translate(-1.111111, -1.111111) ">
                                                                        <polygon transform="translate(1.467800, 0.700041) rotate(18.000000) translate(-1.467800, -0.700041) " points="0.912244179 0.144485284 0.912244179 1.25559639 1.46779973 1.25559639"></polygon>
                                                                    </g>
                                                                </g>
                                                            </g>
                                                            <g transform="translate(2.222222, 2.222222) rotate(144.000000) translate(-2.222222, -2.222222) translate(1.111111, 1.111111)">
                                                                <g>
                                                                    <polygon transform="translate(1.467800, 0.700041) rotate(18.000000) translate(-1.467800, -0.700041) " points="0.912244179 0.144485284 0.912244179 1.25559639 1.46779973 1.25559639"></polygon>
                                                                    <g transform="translate(1.111111, 1.111111) scale(-1, 1) translate(-1.111111, -1.111111) ">
                                                                        <polygon transform="translate(1.467800, 0.700041) rotate(18.000000) translate(-1.467800, -0.700041) " points="0.912244179 0.144485284 0.912244179 1.25559639 1.46779973 1.25559639"></polygon>
                                                                    </g>
                                                                </g>
                                                            </g>
                                                        </g>
                                                    </g>
                                                </g>
                                            </g>
                                            <g transform="translate(6.555556, 14.662392) rotate(72.000000) translate(-6.555556, -14.662392) translate(4.333333, 12.440169)">
                                                <g>
                                                    <g transform="translate(1.111111, 1.111111)">
                                                        <polygon transform="translate(1.467800, 0.700041) rotate(18.000000) translate(-1.467800, -0.700041) " points="0.912244179 0.144485284 0.912244179 1.25559639 1.46779973 1.25559639"></polygon>
                                                        <g transform="translate(1.111111, 1.111111) scale(-1, 1) translate(-1.111111, -1.111111) ">
                                                            <polygon transform="translate(1.467800, 0.700041) rotate(18.000000) translate(-1.467800, -0.700041) " points="0.912244179 0.144485284 0.912244179 1.25559639 1.46779973 1.25559639"></polygon>
                                                        </g>
                                                    </g>
                                                    <g>
                                                        <g transform="translate(2.222222, 2.222222) rotate(72.000000) translate(-2.222222, -2.222222) translate(1.111111, 1.111111)">
                                                            <g>
                                                                <polygon transform="translate(1.467800, 0.700041) rotate(18.000000) translate(-1.467800, -0.700041) " points="0.912244179 0.144485284 0.912244179 1.25559639 1.46779973 1.25559639"></polygon>
                                                                <g transform="translate(1.111111, 1.111111) scale(-1, 1) translate(-1.111111, -1.111111) ">
                                                                    <polygon transform="translate(1.467800, 0.700041) rotate(18.000000) translate(-1.467800, -0.700041) " points="0.912244179 0.144485284 0.912244179 1.25559639 1.46779973 1.25559639"></polygon>
                                                                </g>
                                                            </g>
                                                        </g>
                                                        <g transform="translate(2.222222, 2.222222) rotate(144.000000) translate(-2.222222, -2.222222) translate(1.111111, 1.111111)">
                                                            <g>
                                                                <polygon transform="translate(1.467800, 0.700041) rotate(18.000000) translate(-1.467800, -0.700041) " points="0.912244179 0.144485284 0.912244179 1.25559639 1.46779973 1.25559639"></polygon>
                                                                <g transform="translate(1.111111, 1.111111) scale(-1, 1) translate(-1.111111, -1.111111) ">
                                                                    <polygon transform="translate(1.467800, 0.700041) rotate(18.000000) translate(-1.467800, -0.700041) " points="0.912244179 0.144485284 0.912244179 1.25559639 1.46779973 1.25559639"></polygon>
                                                                </g>
                                                            </g>
                                                        </g>
                                                    </g>
                                                    <g transform="translate(2.222222, 2.222222) scale(-1, 1) translate(-2.222222, -2.222222) ">
                                                        <g>
                                                            <g transform="translate(2.222222, 2.222222) rotate(72.000000) translate(-2.222222, -2.222222) translate(1.111111, 1.111111)">
                                                                <g>
                                                                    <polygon transform="translate(1.467800, 0.700041) rotate(18.000000) translate(-1.467800, -0.700041) " points="0.912244179 0.144485284 0.912244179 1.25559639 1.46779973 1.25559639"></polygon>
                                                                    <g transform="translate(1.111111, 1.111111) scale(-1, 1) translate(-1.111111, -1.111111) ">
                                                                        <polygon transform="translate(1.467800, 0.700041) rotate(18.000000) translate(-1.467800, -0.700041) " points="0.912244179 0.144485284 0.912244179 1.25559639 1.46779973 1.25559639"></polygon>
                                                                    </g>
                                                                </g>
                                                            </g>
                                                            <g transform="translate(2.222222, 2.222222) rotate(144.000000) translate(-2.222222, -2.222222) translate(1.111111, 1.111111)">
                                                                <g>
                                                                    <polygon transform="translate(1.467800, 0.700041) rotate(18.000000) translate(-1.467800, -0.700041) " points="0.912244179 0.144485284 0.912244179 1.25559639 1.46779973 1.25559639"></polygon>
                                                                    <g transform="translate(1.111111, 1.111111) scale(-1, 1) translate(-1.111111, -1.111111) ">
                                                                        <polygon transform="translate(1.467800, 0.700041) rotate(18.000000) translate(-1.467800, -0.700041) " points="0.912244179 0.144485284 0.912244179 1.25559639 1.46779973 1.25559639"></polygon>
                                                                    </g>
                                                                </g>
                                                            </g>
                                                        </g>
                                                    </g>
                                                </g>
                                            </g>
                                        </g>
                                    </g>
                                </g>
                            </g>
                        </g>
                    </g>
                </g>
            </g>
        </g>
    </g>
</svg>
