<svg width="56px" height="56px" viewBox="0 0 56 56" version="1.1" xmlns="http://www.w3.org/2000/svg" xmlns:xlink="http://www.w3.org/1999/xlink">
    <!-- Generator: Sketch 50.2 (55047) - http://www.bohemiancoding.com/sketch -->
    
    <desc>Created with Sketch.</desc>
    <defs></defs>
    <g stroke="none" stroke-width="1" fill="none" fill-rule="evenodd">
        <g transform="translate(-271.000000, -1395.000000)">
            <g transform="translate(271.000000, 1395.000000)">
                <g>
                    <path d="M56,28 C56,35.4260779 53.0499797,42.5479936 47.7990315,47.7990315 C42.5479936,53.0499797 35.4260779,56 28,56 C20.5739221,56 13.4520064,53.0499797 8.20096853,47.7990315 C2.95002027,42.5479936 0,35.4260779 0,28 C0,20.5739221 2.95002027,13.4520064 8.20096853,8.20096853 C13.4520064,2.95002027 20.5739221,0 28,0 C35.4260779,0 42.5479936,2.95002027 47.7990315,8.20096853 C53.0499797,13.4520064 56,20.5739221 56,28 Z" fill="#9B3484"></path>
                    <path d="M42.793326,34.2856148 L29.0433743,9.6240043 C28.8056586,9.18361339 28.3455328,8.90909091 27.8449841,8.90909091 C27.3444634,8.90909091 26.8843376,9.18361339 26.6465938,9.6240043 L12.9019122,34.2856148 C12.5444976,34.9216167 12.7494714,35.7468381 13.3907433,36.1252771 L27.1564493,44.3562981 C27.5996154,44.6085067 28.1429417,44.6085067 28.5861079,44.3562981 L42.3307894,36.1410314 C42.9404967,35.7468381 43.166523,34.9216167 42.793326,34.2856148 M32.4020348,24.3463481 L32.0656446,24.0625188 L32.0446202,24.0414944 C31.9376481,23.9540049 31.8252937,23.8732993 31.7082299,23.7997139 L31.6872055,23.7786895 C31.5768415,23.7051041 31.4611793,23.6262487 31.3297909,23.5526913 C31.3087665,23.5526913 31.3087665,23.5316669 31.2929842,23.5316669 C31.1826201,23.4580535 31.0512317,23.4002505 30.9355695,23.3424474 C30.9145451,23.3424474 30.9145451,23.321423 30.8987909,23.321423 C30.7883988,23.2635919 30.6570104,23.2110309 30.5256219,23.1532279 C30.5045975,23.1532279 30.5045975,23.1322035 30.4888152,23.1322035 C30.3784512,23.0953968 30.262789,23.0375657 30.152425,23.000787 C29.8485525,22.8869189 29.5355974,22.7989809 29.2168396,22.7379822 C28.9750591,23.2057608 28.6334268,23.6210066 28.2602298,23.9731791 C28.8436707,24.0099578 29.4060591,24.1623987 29.9106445,24.3673724 C30.2091348,24.4958175 30.497253,24.6469408 30.7726445,24.8193969 C30.7873055,24.8209386 30.800677,24.8285915 30.8094232,24.8404212 C30.8830366,24.8772279 30.9408396,24.935031 31.014425,24.9928341 C31.0495778,25.0123447 31.0815629,25.0370974 31.1090348,25.0664475 C31.1770417,25.1106828 31.2404512,25.1618141 31.2982543,25.2188603 C31.335033,25.255667 31.3718397,25.2766914 31.4086464,25.31347 C31.4664494,25.3712731 31.5190104,25.4080798 31.5768415,25.4659109 L31.9500104,25.8390798 C31.9898727,25.8931826 32.0337716,25.9440896 32.0814269,25.9915207 C32.1182055,26.0335694 32.1549842,26.0861024 32.1917909,26.1229091 L32.3021549,26.2911042 C32.3389616,26.3489353 32.3757683,26.385714 32.3967927,26.443517 L32.5071568,26.6117122 C32.5439635,26.6695433 32.5649879,26.7221042 32.6017665,26.764153 C32.6385452,26.8219561 32.6595696,26.8745451 32.6963763,26.9323481 C32.733183,26.9901512 32.7542074,27.0427402 32.790986,27.1005433 C32.8120104,27.1583463 32.8487891,27.2109353 32.8645714,27.2687384 C32.9013781,27.3423238 32.9224025,27.4211792 32.9591812,27.4737122 C33.1169762,27.8577577 33.2247332,28.2606131 33.2798171,28.6721025 L33.4480123,29.3291287 C33.5215696,29.612958 34.1996202,32.0097385 35.7711794,32.8191776 C37.574035,33.754763 39.9550332,34.9216167 40.8906467,35.368399 L28.538789,42.7584444 L28.538789,37.6968363 C28.538789,36.8926393 30.1314006,35.9518118 30.8620122,35.636446 L30.8987909,35.6154216 C31.0512317,35.5418362 31.1984024,35.4629807 31.3508153,35.3736411 L31.4086464,35.3368344 C31.7286096,35.1471944 32.0296228,34.9271952 32.3074251,34.6798362 C32.3284494,34.6588118 32.3652281,34.6430295 32.3810104,34.6062508 C32.4178171,34.5852264 32.4388415,34.5484478 32.4756202,34.5326655 C32.5702299,34.4590801 32.6438153,34.3644703 32.7384251,34.290885 L32.7752318,34.2541063 C32.8724485,34.1630847 32.9604987,34.0627843 33.0380086,33.9544947 C33.059033,33.917716 33.0958397,33.8966916 33.111622,33.8598849 C33.1851794,33.7862996 33.2430104,33.6916898 33.3165958,33.5970801 C33.3376202,33.5760557 33.3533745,33.539277 33.3743989,33.5234947 L33.6004251,33.1871044 C33.6004251,33.16608 33.6214495,33.16608 33.6214495,33.1502977 C33.7160592,32.9978849 33.810669,32.8296898 33.9052788,32.6825191 C33.5321098,32.2304947 33.2482525,31.7469337 33.0222543,31.2949093 C32.9265513,31.5727115 32.8069646,31.8418798 32.6648397,32.0990782 C32.6070366,32.2094703 32.5334232,32.3251044 32.4756202,32.4354684 C32.4545958,32.4564928 32.4545958,32.4722751 32.4388415,32.4722751 C32.3807862,32.5633808 32.3176009,32.6510946 32.249622,32.73508 C32.2285976,32.7561044 32.2128153,32.7928831 32.1917909,32.8086654 C32.1335393,32.8972482 32.0646634,32.9784023 31.9867891,33.0504459 C31.9657647,33.0714703 31.9657647,33.0872246 31.9500104,33.0872246 C31.497986,33.5918099 30.9565939,34.022838 30.3364024,34.3224215 L30.2260103,34.3802526 C29.9053744,34.5116411 27.1511792,35.7678624 27.1511792,37.6600576 L27.1511792,42.7216657 L14.773083,35.3526167 C15.57728,34.8638136 17.9057173,33.4762038 19.8189368,32.8769807 C20.5705448,32.6352282 22.1631564,33.644399 23.0619632,34.3749825 L23.1197662,34.4327856 C23.2356246,34.5492046 23.3603413,34.656401 23.4929351,34.7534216 L23.5297418,34.7902002 C23.8135711,35.0162264 24.1131827,35.2422527 24.449573,35.4104478 L24.6755711,35.5208118 C24.6902322,35.5223536 24.7036037,35.5300065 24.7123498,35.5418362 C24.9173516,35.6522003 25.1223535,35.7468381 25.3483517,35.8414198 C25.3790192,35.8559967 25.4105558,35.8682749 25.4429614,35.8782265 C25.4639858,35.8782265 25.4797681,35.8992509 25.5165468,35.8992509 C25.8371828,36.0096149 26.1525486,36.1042527 26.4731566,36.1830801 C26.7149371,35.7152734 27.0723517,35.3000557 27.4507907,34.9479112 C26.9236392,34.9120856 26.4047292,34.7987502 25.9107401,34.6115209 C25.8897157,34.5904965 25.852937,34.5904965 25.8371828,34.5747142 C25.7783705,34.5568575 25.7219691,34.5322169 25.6689876,34.5011289 C25.6479632,34.4801045 25.6111565,34.4801045 25.5953742,34.4643502 C25.5375712,34.4433258 25.4850102,34.4065191 25.4429614,34.3907368 C25.0697645,34.2015173 24.7281321,33.9965435 24.4127663,33.7337386 L23.9239632,33.2817142 C23.4722471,32.8846616 22.9827713,32.5326011 22.46274,32.2304947 C21.2433253,31.5366898 20.2131302,31.3106916 19.4247435,31.5577141 C17.7953252,32.0833239 15.9346946,33.0767404 14.8098617,33.7337386 L27.1669615,11.5319818 L27.1669615,21.2662748 C27.1669615,21.602665 26.6623761,22.5014718 24.9541583,23.2741041 L24.8437663,23.3319072 C24.6755711,23.4055206 24.5231303,23.5001023 24.3549352,23.5947401 L24.3181565,23.6157645 C23.9948014,23.8103382 23.6872005,24.0300011 23.3983534,24.2727627 C23.2163383,24.4208024 23.0474984,24.5844002 22.893768,24.7615658 L22.8727436,24.7825902 C22.7066229,24.9438893 22.5552753,25.1197653 22.4206912,25.3081999 L22.3996668,25.3292243 C22.3261095,25.4238621 22.2682784,25.5184438 22.194693,25.6130816 C22.194693,25.634106 22.1736686,25.634106 22.1736686,25.6498603 C22.1158656,25.7444701 22.0632766,25.8180554 22.0054735,25.9126652 C22.0054735,25.9336896 21.9844491,25.9336896 21.9844491,25.9494719 L21.816254,26.2332731 C21.7952296,26.2542975 21.7952296,26.2700798 21.7794753,26.3068865 C21.7216442,26.4014683 21.6848375,26.496106 21.6480589,26.5696634 C21.6465171,26.5843524 21.6388642,26.5976959 21.6270345,26.6064701 C21.5902558,26.7010798 21.5534491,26.7746652 21.5166424,26.869275 C21.5020935,26.8999425 21.4898153,26.9314791 21.4798637,26.9638847 L21.3694717,27.247714 C21.3549228,27.2783816 21.3426445,27.3099182 21.332693,27.3423238 C21.3151727,27.4129657 21.2905321,27.4817295 21.2591076,27.5473256 C21.2380832,27.5841043 21.2380832,27.6208829 21.2223009,27.6576896 C21.2012765,27.7522994 21.1644979,27.8469091 21.1487436,27.9204945 C21.1277192,27.9572732 21.1277192,28.0151043 21.1119369,28.051911 C21.0909125,28.109714 21.0909125,28.1832994 21.0751302,28.2411305 C21.0541058,28.2989336 21.0541058,28.3514945 21.0383515,28.4093256 C21.0173271,28.482883 21.0173271,28.5617384 21.0015728,28.6353238 C21.0015728,28.6931269 20.9805485,28.7299336 20.9805485,28.7877647 C20.9805485,28.861322 20.9595241,28.9191531 20.9595241,28.9927385 C20.962916,29.0617265 20.9559079,29.1308267 20.9384997,29.1977122 L20.9384997,29.4815696 C20.9362851,29.8211275 20.9608136,30.160349 21.012057,30.4959824 C21.5008881,30.6063464 22.0054735,30.8165903 22.5521077,31.0794233 C22.3996668,30.5905922 22.3261095,30.0860068 22.3103272,29.560397 L22.3103272,29.4657872 C22.3068231,29.3410706 22.3138312,29.2162417 22.3313516,29.0925903 L22.3313516,28.9980086 C22.3313516,28.8876165 22.3523759,28.7930067 22.3681583,28.6773726 L22.3681583,28.6405939 C22.3891827,28.5302019 22.4049369,28.4145677 22.4259613,28.2831793 C22.4259613,28.2463726 22.4469857,28.2253482 22.4469857,28.1885415 C22.4680101,28.0939598 22.5047888,27.999322 22.5205711,27.9047402 C22.5205711,27.8837158 22.5415955,27.8679335 22.5415955,27.8469091 L22.6519595,27.5105189 C22.6729839,27.4894945 22.6729839,27.4526878 22.6887662,27.4369335 C22.7255729,27.3423238 22.7623516,27.247714 22.7991302,27.1741286 C22.8201546,27.1531042 22.8201546,27.1373219 22.8359369,27.1005433 C22.893768,26.9901512 22.9305467,26.8955695 23.0041321,26.8009317 C23.0182605,26.7828787 23.0305107,26.7635083 23.0409388,26.7431286 C23.0987418,26.6485189 23.1355205,26.5749335 23.1933516,26.4803237 C23.20748,26.4622428 23.2197302,26.4428723 23.2301583,26.4224926 C23.2932315,26.3241826 23.3616588,26.2294607 23.4351321,26.1386914 C23.4347957,26.1269738 23.4444389,26.1173306 23.4561565,26.117667 C23.5297418,26.0230292 23.5875729,25.9494719 23.6611303,25.8548341 C23.6752587,25.8367811 23.6875369,25.8174107 23.697937,25.797031 C24.0362895,25.4233015 24.4214283,25.0946762 24.8437663,24.8193969 L25.4271791,24.5355676 C25.7478151,24.4041511 28.486256,23.1111791 28.486256,21.2137138 L28.486256,11.5161995 L40.9589619,33.9071758 C39.8499113,33.3658118 37.8841588,32.3881776 36.3651325,31.5997629 C35.4821081,31.1477385 34.9039373,29.5551269 34.7357422,28.9717141 L34.5675471,28.2989336 C34.5675471,27.9415189 34.4729373,27.5841043 34.3625452,27.2319597 C33.9665018,26.1183118 33.2915067,25.1248112 32.4020348,24.3463481" fill="#FFFFFF"></path>
                </g>
            </g>
        </g>
    </g>
</svg>
